<mxfile host="app.diagrams.net" agent="Mozilla/5.0 (Windows NT 10.0; Win64; x64) AppleWebKit/537.36 (KHTML, like Gecko) Chrome/129.0.0.0 Safari/537.36 Edg/129.0.0.0" version="24.7.16">
  <diagram name="Resources" id="XpIFImCJ9EnfW7iFdL0J">
    <mxGraphModel dx="-524" dy="2983" grid="1" gridSize="10" guides="1" tooltips="1" connect="1" arrows="1" fold="1" page="1" pageScale="1" pageWidth="850" pageHeight="1100" math="0" shadow="0">
      <root>
        <mxCell id="0" />
        <mxCell id="1" parent="0" />
        <mxCell id="M_lXGhKRNm76FgjSmlMK-1" value="add permissions&lt;div style=&quot;font-size: 9px;&quot;&gt;through policies&amp;nbsp;&lt;/div&gt;" style="edgeStyle=orthogonalEdgeStyle;rounded=0;orthogonalLoop=1;jettySize=auto;html=1;dashed=1;fontSize=9;fontFamily=Roboto Mono;fontSource=https%3A%2F%2Ffonts.googleapis.com%2Fcss%3Ffamily%3DRoboto%2BMono;" parent="1" source="M_lXGhKRNm76FgjSmlMK-2" target="M_lXGhKRNm76FgjSmlMK-4" edge="1">
          <mxGeometry relative="1" as="geometry" />
        </mxCell>
        <mxCell id="M_lXGhKRNm76FgjSmlMK-2" value="" style="sketch=0;outlineConnect=0;fontColor=#232F3E;gradientColor=none;fillColor=#DD344C;strokeColor=none;dashed=0;verticalLabelPosition=top;verticalAlign=bottom;align=center;html=1;fontSize=9;fontStyle=0;aspect=fixed;pointerEvents=1;shape=mxgraph.aws4.role;labelPosition=center;fontFamily=Roboto Mono;fontSource=https%3A%2F%2Ffonts.googleapis.com%2Fcss%3Ffamily%3DRoboto%2BMono;" parent="1" vertex="1">
          <mxGeometry x="2663.5" y="-1880" width="78" height="44" as="geometry" />
        </mxCell>
        <mxCell id="M_lXGhKRNm76FgjSmlMK-3" value="" style="shape=image;verticalLabelPosition=bottom;labelBackgroundColor=default;verticalAlign=top;aspect=fixed;imageAspect=0;image=data:image/png,iVBORw0KGgoAAAANSUhEUgAAARcAAABgCAYAAAA3gzYZAAAAAXNSR0IArs4c6QAAAARnQU1BAACxjwv8YQUAAAAJcEhZcwAADsMAAA7DAcdvqGQAAB+jSURBVHhe7Z0PXFRV2sd/S6Mw6wu+YMwWKugOBq8iCyptQ2lCvmC6ibutmi241pablZpZora+SKaFm/0x000qTdkMxE0s/0AmKq+MBcLEDi6oszqIkw0JC/PagMzC+5w7d2AYZvgzzqTo+X4+V+ece++55557zu8+z7n3PvyklQCHw+G4GEFcthbpsPTzs/j+ylUxm8PhcJzj9gH9se5XwWZx8U85hl1zIzBmiI+4msPhcJyjpLoBM7ap4MESzGLhwsLhcFwB0xKmKYK4cDgcjqvh4sLhcNwCFxcOh+MWuLhwOBy3wMWFw+G4BS4uHA7HLXBx4XA4boGLC4fDcQtcXDgcjlvg4sLhcNyC8G3RT144hPpXJ4lZ186pKj1e/UyFE5eu4nuTp5B3u6QJ99zRH8sfisDIQJmQx+Fwbk4GLj/kesslNes47t38DfZWe0Bv8kILfiIs7DfLY+vYNhwO5+bGpeLCROONUqMgJo5g69g2zghMU24you+JQuoRMYNoOsTyHkXGeTFDoAan9h1EXlmNmDZT87enaNtkHGliqQaUbluEBCov7K5wyp+KJ9fn057XF+WyYRgxeg1KxTSH01dxmbgwV+it0h/EVPewbdk+PacJebszUfNtDTI+zqGUGU9FNEZ9W4g8pZUsVO/B8qefwjPPZUIjZrH9T5Dg1IyKhoI8ter3Z2NmSglGPbMa6R/9BatWzsM9NRdQLW59vQie9CxmPBUDuZjmcPoqLhMXNsdia7E8fncAjswfKyzstzVsW7ZPj6nZg125wVi24VkMyd2DvCti/oBoxCnojq88KWaQjJwsxCkfH/hoClHSpjnlKCkAFJOi4YkLyM0qB37zMtYmTYaCBCpuagL+8NocRIpbd6YJDdXlUJZdQE2DRdpEmhpQU1kIZWUNbFe1cYW2cbiyHf9JL2DtM9HoGACDjl1Tg5qaBjSZxCwBln+Wzv1sj8rmcH5MXCYubPLWGiYmH8wcifvlvsLCftsKjO0+XVGzLxPKyDmYljAd04bkY8cui2r4QxETDBwsbHMlTpUUwj/pBST604D/RswsO4zcpmDcr/CnhBd8/Oi/8nJoejImr5TgtftDMDZ2LpbM+w0SxoVgheiaNSjXYPLIcMT8bhGW/O4+jB35mzYXrfq9SRgRtwYfvBiFEbRNdEohqeD/ICyItvnWvI1AUXueeZ/0dgtKk46Zd9Gxx92HhAfJhZsirmsoxGuxlH/vbCxZPBsxo0Mwc9sFYRcO50bAZeJieSpkYc7YO8Vf7djm2e7jmAvY+3EJIqc/SFISjGm/GYrSPQfa5keGKCbDv+kAjpSxFN3JC5pwzxiyQmJIwErIQiGqv85HjT9ZKcNYyh8z1ryESM3rJAxRmLMsHUe6UhnlR/igehbSTxWh8AQtp89j7X2UbyrEm79Px9BXy6Aupnxa3phYgtR38837MSoPonziThT+vQwnU6OBqMmY4VmCvbntbpwyJxNN8b/HDNsmM1FZ09dAM/UvOKmppPIrcWb/kxhCq5TrHsMHw9Nw0lKnDTEoTdkIq+koDue64tIJXbdRmYmMyjGYFs+sDkD+qwQMKU2nPCEJhD+IGf41KC2nAVtzEic00VD8glyg+2JQU1BId/omlCrL4T/zQYwUd4H8SWTRwMx5dTpwZA2eJCsg+veZ0HRwO0SGDsUQ0wF8+HY+NBZ3TEJL6UHsaorG/Xc3kcvC3JYmDAkhK+qbs1ZzN1TvqcHwZ26aD4mpJBqJf7QSRxKovKwmcssmk7tmQym5gg3B+MOzk+HDjscQ/i8R9lGMj0ZTHTtuDZoCR0GOk9B0mNjmcK4fLhMX9h6LNdtPWtv9ZmzzbPdxxCm6s1dLGqB8OxkrltGy9Sw8JWTNfH5W3GIUJk71hPJQIRq+IVcoJAbM+/H8RTTkZeQukQuRf8gT8TGjxO1FPP0xcuZL2H7iPE5uSUDTkWSktrlbVoS8gJyP5gC7HiNLZxii56VTmZRfX0+yRdbLI1OQ8JB5eeZv9fBXBAvWhSPkjz6JyNLt2MuEoIgECnOQSPXvhFA+VfM2c7KdetTTCuV6ctHE4ybMz0TDnXS+XR2Yw/kRcZm4sBfkrPnwax3+kHUKRzV1wsJ+szxrbPexC93Zd71fA/nsBUgYH4OJwjIdidOGovq97W3zLJHjJwMkLh+UFMJTMdY8uIeNhcKzECXp+cjDZNzveLYWPvEL8Ac5oG9oFHM64jPxBUGE1MUfY9r5NUhaXwLIhpKDFY1ln4muiWVJJX+sK+4kS0txFrtyyYXblwn/P86BwmKZWCOUX48GJmQdkGEoiadixf6Oxz3xMibaK4fDuQ64TFzYm7ce6PgnkJiYTNx8UlhshYVty/bpFnZnbxqDxGcSBNfBsiQumgN5Uyb2KsXtFLGYiExsercGcdFjxMwxUExuQsaG7WiaFGs1gJugOWX9hKUJ1Vmv4wONJxThQ8U8K660P6Xx9A+D3DI3MjIW8T6F2PQ2WUxt7hRzkTqpgQ3+mDZ7MjS7F+G1HUOR+DC5UvYQyq9Bxkay3MSqNpHSNAmWmg+UG9+Bstacz2gi96i7I3M4PxYuExf2Sv9zkT8VU93Dtu3JZwBHskgYFLMQbzvZOYysl0gSjixx8nTAZEwTvmCIhsKiLUSkIlr4f+I06zmNBpx6ayqiR4dgRNAwWkIQ8+JJjFmxE4sV4iZW1OQuQpicvdwWhbHycKwon4WNS+ggkjFI2ZOG4IOPUv4wjB1tLithu8Vdc4znVHKFzpfjFHsCJkwy20Esf0xJMmLuYmUPQ9i410E2EyJX/g1rgw9gTiSrV7h53UMfWb3Xw+FcX1z+bRF785a9IOfoLV1msTBhSZl5r5hzHWHvnvwgzGrAx9cHnl25FKYmNNSR1XCbD/z9Os+PNNWS1fBvKsnHH2ze1tU0NVD5JjvHtpyDJ61zx4E5HCdg3xbxDxc5HI7LcZu4cDicWxu3fBXN4XA4DC4uHA7HLXBx4XA4boGLC4fDcQtcXDgcjlvg4sLhcNxCHxKXRujUxVBX23z7o96NVzYVQIhppy/AptW7oRZWuIs6aIqLobksJmGC/pSdetlSp0FRSRUM7HeLAdqyYiiPK1FUXAndFXufYruPWtVeZB/v+DmGy7C+HsYqHMvajwrhS3I9jm1ai2xnL45RBzW1e1GHRQOrrx9goja2bKPW1MHUYpVPba0sLodWuABdY9SVo4j2dwu96qPlyF69Gcd6E7DxBqLviEudEru278aObGWHDgWTAQaD0fy7xUi/DTTc3cipPHyYtRsf5lriPUhgrMzDjn2lEGsBnN+LV5YuxxZlu+Boj2Qiu+giJC065L6xFlsOqHD2nAYVFQXY+ZmlrB+HOm0FNBfq2uvrSqyvx9WLqKjUQicOaCNdG4OzF6dejX1ZeSiqqKA2syw6s1jTjUe1PRUvpW3DnkI15avxZdYnKPweMBzfjJQN+1FEbX326xxsWvMOjnWjG4Zv9iG7QCumXEyv+mizsK1RFMm+Rp8Rl9qTaujHKBBxWYljVWJmT2gxwVBPnbq+0SWiU6FSQ3avArKyAhSJYyjov+SQnKtEpdgJDFotjJ4SaM5YvvTRo0JjgDw8EtLTBXQnCsH0F59AUmIiLU9gySM2oSAsmBrNdbcdkY7yBUw0iLs+U3nCUiTTMaVimmG6wtqIOrLVrpY8Q4eAgVS+0J40QLrr9AMVmLdyPmLvENNd0eU5WQhAtNBmlmU8gii39mg6dmqCMHvlavxp4VzKn4tFy+djgoykPzwRqSkL8Bjb/um5mDBQh6KiazAF2vpTx7Zq46pNm4npztta2rFzvzQxEaZ19trXss7QU2u32/7ffX9xlj7ygT6Z118ZEPW7aYj0VGNHaRWmBwaK67qgrhhbN+TgLA0jKd2njQjBjBcSSaDIsthUi1+tnYsIklf19uXYcXE8dcgp1H0NOLZhLUpHLsWiSb5iQSLGYhwrC8LdKXHApVSUljUi6pdewF0hCMZu/OM0EBFKAqTRITh6PPRktmsxCkFG+l8fgNCRtG09q4sW2tN0PqHeYsF2uJSP9e8eBoaEwPtKFUzhT+DpSTIYK3Zjw1/V8BpOw+qiBnXDH0Fy4ihUbluOXDqW5HQ59ANjsGR2I7Zs1OOB1CegEFSkCntWp8P48Go8oF2H9d/FIW0u+yqd3fXTsLMC8Jb2A3xJEJ5VoHb3BuxQSxE8lA5zrhZBM5KRFN6Aw2+8gy9bghDqTa5dcwRtGwPHH3OosHVpHgKeX4r4DgLTCM2nm/GhJgTzFk6B7J/2z8la/BxjgPobHfzuXoCIAWKWFVJv6zY2oZnGkZ/Myc9P9Pl4+91jMAwcTOd8ka6pDyY8t5jOTY/ctDdRxFriKt1xmHXS5Ad5UDP0ejqgidIIw2Mps0Ddg2DW6zp8Tu6iicSn2TcOi55n7dgIdUYadpwSrwWNThP9Yw4Oq8fhDeQi1fsggA6j0+rhPXExlsR1cS6O+j+1k8q2vyTHdXEdnaNviEuVCuqWMCQNIyuBLhI+UKIiIVC8UI5oRFH2blwMn481vzYLUcXHK7EjpxIRj0YgzDtdFIMqnL0gg0xCZnM93Rv7k1ldHYDI39sIC2EsU0EzfBSSpCQS4XLs+aoIhl+Oh7dHBCJDM5F7ju6IoXXk7gRA/rAcXoV50FKZQWTVaAaRtTKQChk4DY9PvYgt20jABtBxYhMQrwikMszHsKAvLYJ+eALSHh8n5jCqkLtbhcDZqzGbhdRroc6zTAmV0TwQG1rkWPJyIvyEq1qH6IB1+LuqEQoF1fc8tSGikMT2s7L4jV9lYOcZOZJovzBLb6jaiy2qICSl0mBg9SrehmQluX0yA4ouyTH9tbmIctrmNUG7TxSW56YgSEKi5+CczKJojYYEci0+F1Ohv16B34bRoKHxLPtZx/jM9tAd2A1lf7qJhIsZvUUWg0VtsXoaoXwvFYVl+jbhlE1cgHm/ZI3IhHwz6sa+ij+xyyec02ESI6qzeUvELnwCUWzTlkrsTNmGfaoYPOaXhz3qwZi+km4ITCjF/cywfVIQK6aMyvex6rgK+jhHotBV/w8R0h37i+vpE25RRWERTHI5/Jh55yuH3EONUlL3rqmFnnzuwcPbLZzQkXKYLmjpHhCIyJFSaP5B/tWlClTefg+m3mVAxalGoJKEYAiJBROCDtDA+kqDAKqHiZmsw+UIqFahSPTfQ0LkqD1TCcMlLap+KkfwQLJmhuvINaKxfE4H77tC2zpBwP3zseqVpXg8NgAXD23GK2/kmSdArZBFRkF2NgevbKABwSYnWWaLHnX1ErKIMrAjg5aPi+j+WYsGEjCGz53URm0dxZdERQ5NEQkgpSpOFJEgRghuhDV139eSnxTWLiwMfS0MEj2KPhaPc0IH/Iva/o4IRN1BA3zNO8g+rkGtE9a0/tA72KSWi8JCGd2cU0eCEL9wARaJy1Sru0tzc9cT6kbVNmw5CsQmkXV6Db3eUFWM3KwMZB8oxUUSNdO/xRVEv7bP6r0gZXHQLEkP68ZlSNCvbR3rJ9Qu31IPYO3uGwi5xQKz3c9QhSISyB1ZeVDp6OBWx+5MV/3fTMf+4npufHEhZS8tJ3P2TA7e3vAOLTmoJD9S9XUv/iyJBavBEBRJFtDpClSQmHiFhiFUHghtJZskJAH5RQQ6OSxkYpZWS1BHdwyhHulK1EnIfz9hvlTSkSEkNhqoNVVoYMJDeaFyEo8LZGWRhRQWaePGSXwhv/dhLHphGoL0KpReEvMt3EGm6svPY3a0Nyo+WYdXPrFM+vphdFwCpj/ElkQsemkhHnAwpyGNGodQHZVdz9pQhugJNnXoCt8wxAvHoCVpAf70bCyJI909n0/BkkcV8K7MRNrqTFT0crLRm9pGVq9BqdZaDHp6ThJIB3rDW1ykwsDwgc9/MgHvYgJWl4dNWXVQLCQXpnsDxzEVmVifroIpLBbxo9mfj/gRYRbO6+koJQv+gfgwunU4gRM3g2vhxheXCjLnvRSYl7ICf1ppXlY9SZ27orhtQhVXG62efJgEM5lN/snp1nhWXS62KZmJZRpIhgaZLYhh5BpdLUb2/xoQFERSMkKOoAsFyD0ThLvv7jwXwiaUdSMSkCzWgS3JCWStlJwwexlkqYQO0iA3T4PgYLPZ6R1EdoIqD8r/kyPUEhCKhNFkdZFNl3So9aCBYusCsEHLBGhcHB6LD4FRS3ccj0AEDNLhrIbKtgwyby/Hvi25a4pwPUo/KUBloAIKOz0yYDC1hoYsMEvgccaQAPjpNNBQvdqOw0ayICQS+MnHIX5uHEKNWsHU70SH69ERqXwanp7pD9UHm5HLnob39pw64QXF/RHoV7Yfe06JFh6DGlmYECVhWb+xHKFPLegkLMbq8u5fIbBCTwJmHB6BqSMD4B0QQK60uKLXGNFgeSR+RYnS016QB9N1YO1+ma6F5S0B9qRI/Ak9WcRGOSIfpJvYwAAMvr394PbPo5v+/yPgdPP8OFCDkF8pDZvf0ZwPZHMmm80TquFkdWTtxqY0LyxJDkWYbz72kA8rXTcXEQmJiNyYgZQUcULrpxFIetY88KkQMONFWWIZ+FTOwL3Y5zkNEZ18fTahrIN8UliHSUYpuRnyT/NQWkXWR6AMkeHeOJwvhXyEuMGwEMhblFDJSXjELHxfgLfJDaqVkqBQnQxGCUITFmKCjRumP0zuw3EDJCT/pqvNCHv4EeoUXohPiqHBshYvHaL9PZphvCrH7NWJ4l6dCb0vCtkblQh69IkOdW8j4hE8dnoDdqSuxD5vCZrF8pJi38S7a1Yid4AUkhZqO/kjWBOnN09oSvpRpYx0B38Yj9haGCHW18N+N5ZGJCIZ25C24U2Ynib3xsE50eWxge7eS5djp5iig2E2u86hs7DwtxnYunMdXrJELvWQIf75xfDLywebU9VvXIlj4ioMMk9gavMycPjOxQgb4iWusOJUJpKXZooJYuQspE0mV7UgB6tW59HA8YXfQCeHj0cj1DvW4vDlZjRfMcFPMRdJQp+JQ9Kkcrz71koU0bXAQBl8LfG/BJe0AHtS1yKXVvkN8m4bvGoH5xHaZf93P7dEPBf2+M5IzevNLtgNAXsMSYOTfrGnGUxA7MIeY9KtSzLA4gJYEPf3cOE5sUeWZL10KI89Hr7SzCoJb0ssdbadUCk69gBXtqdrzok9Pje29KQMNun6CaRP2j7J6gbh/E3knvXGunIAXV8js1ptC2Lt3uLV3uZWsL7czG5Mbft0fx7Xo//fMvFcJDSAf8yG7Z72uQOHwsLob96mU+ez7O/Kc/KQdC5PQh2cHce6k7PtWJ5LhYXhmnNiQtyjMq7WwiBTkDUgpnuKcP4uEBYGXd/O15Zg7e7gD2Owvtxhnx6cx/Xq/zwSHYfDcTk8Eh2Hw3EbXFw4HI5b4OLC4XDcAhcXDofjFm46cVFnrcWmo/be7Lo5MaoysGrZciQvXY4dZWLmjU6HOC/uwzVxa7qOQ+PW2Dh9nD4vLvpDmzuIiekHAww/iAk3o/7kGoIfuQTq+IfKIXsoBWnrXkWSsx/kuZuWcuy0DpBkE+fFXTgbt8b2unYVh8atsXH6OH1GXOzHFgF01VX2xYS97MS2t+0VlnxH8S3Yi03iCkvsDLtxO2hgX9TSett1PYpLIiLG+rA9p97UkX28Jh1g84Zpd3Vg5XeIB8JeYLM+npju4hzaroedbTrFhtFfRBW1ZduW9uK8dFPnTmUKWOptP/aJvbg1DvtFGw6uK8NSR6u2sz1G133m1qIPvOfSCO1nm7FF2QCptB9MRiO8J87HkjgJmavv43A1Xcjb2EtH/YRP8IOLl+PzhkBI69ndpBnGK42QPbgUi+73BS4VYNN7eTDcEQJfQyW0HrHmOBqX8pD2VhUCRl6EWt2I0EdTEKVOw85zfggeTN3tggxTU2ZZvY7Owg9mo5TKhid7qckXE/44H1E/7MemLUoYpFJITEYYB47HM8/FdfoKl8XS2HVRBp8WVkNWR9AxWbwUEoke1zER3p/1pg7mmCPaO0dBd6ocxtBZSItQIXm3DrKf0t2ZBoPJaIB0iBySy/rObWeFOiMV2eek8JVJYajWwTQiEclz2ACzExtmYi227FYJb/9KvalOg8Zj3tPe2GcV58V43kGd9XTOb6jgLSf3wzYuCp1Pd7Fl9Afa49awNnfYL9qwd10fhnHrm1ANoErU6c3XiyyusMdTMDvU+hihQiwWx33m1oK95wImLljyRWv91dYbczmb0/ri8+mtB+vE9HeHW19+bkPrp9+Z00e3LGtdkfNd2/Ys/WJGRetlMV2Wuab1qS2l9NvYeujdZa0v768Vt73Y+nHqmtaPTtPvqtzWFc+l0e9mcV1p61uU/vi8uQz7y3etWauXtb71tSWtbf0oZVnrn48axXRt66frrI/Xvgh13qVtS5/bv6H1qdW5rWd6VUe29KYO5m3ZcS83itt/vbX1qdSc1jIxfeloOqX3tf5D2Le19R+fpoltJ25vbznNrs+O1uP0+1IB7Z9Mv3+w2Uao+9bWo2155vbNqmK/u6izsN+m1s8ui/vVF7b+2bKfWOYhy7nYWc7ktNffcb+w3c+2Tc3pV79oENPG1oPvtPe59mP0pM/cOgvTlBvfLbKNceE7CqGDdNB28YV9P2/fttezpV6WXyy+hQSNmn3muCEZ+1HxgwF1/xJX0z1v2DDLtqGICjeicPOb2HpABZ2t22IPIS6JL4KGW1wUX4SF+JLb5qCi/dtdGb+Rcvhd1kHXqzraoQd1kAUFdvzkwMMLUjEtZe+Ve0ja2s7hpwkmPSry91L99uLw2VrB1WBegN3YMN3RbZ2l8LF8pE6WDdlDZpyILWO/X/QM9mmCGWovy8eEHXCiz9zk3Pji0gnxU3qnkCBQYYkbMgvzXljhYBLUC2GJKUidPwVBhnxs+Z/ugzrbw7l69rSOPcP5tnJEHbmjbyLn2wBEx92DILsD7droWZ2vPbaMa3FNn7mZuPHFRR6EgMuVKLU8ENKpoK4LAAuV0gbdObsnAIPvbITmjL7to0Hhw0FxbSeoo0oCQhA7cxaiBuqgcWQpWQ7tIUdQQB0qysSKtuhQqq5DwBDb2G9mmg3tsUe0X6lQGygHCzHVqzra0ss6OIcWmmqyLiaOg1wmQ5B/e+wbu7FhrGi2N/idrbNQVg9iyzhLT7qULT3tM7cIvbMNrwe+MZgxtQJb3loJJZntzUZg8NQnESvOwwXKA9Hw2WasKpZA/usUjDZn2yVixiz8/fX3kVLGJuuo/1yVYsKCxW1xSdspx47UbGhZ3BIWy8Q7Bs90sh5oYJEpfzh7JVZ9JoPimQWInzkFFenv4CUlme8mquidUzDPUlFbLh3G+pRP0Ey92EADbPqz44Xodz2voz18qWM7qoOrRh4z/3Owc3MqSvv3Qz+ZL7kq4rMSB7FhwmRB5NbmIzslFfv8FXh6ofW0axd17qrK34vBsruKLeMUttd1lpjfHT3pM7cWfeeraPYY8EqzndgmvUeIb9FCQ6LLT+edjS8i7tdFvBMh8vrPFiP5QT/hyYPUTvk9q6Mjuq/DtSLETelHlpW90ADCo26b2DDd4kSd2XHcElvGWZztMzcffeuraDG2yLUKC0OIb9HtoHU2voi4X486O23roPye1dERvamDcwhxUxzEHLEbG6ZbnKiz22LLOIuzfebmpA9O6PZ9Asc/jKm/8BFTHM7NCReX6wCbhAwLaH8UzeHcjHBx4XA4boGLC4fDcQtcXDgcjlvg4sLhcNwCF5drwDaWDIfDaadviIslBoe9OBmWdTYBOOzF/2iLQeLER2X2ynMYS4bD4fSBN3T14mveAwdDhovQ6n0w4bnF5r8uJ/wd4HzUstgbHs2QJ6RgdridmCLPKmC0GxMmAGBxUt7QIZ79WVB2POu08NtePJEY6P/SOZbMb2/V4B0cjg3sDd0+9kfRGqF8LxWFwxeTMDRiz5rN0EYtxqK49m9VjF+9j1WfeyEpJbH90/+qvXhlkx4PrHwCCha6oY4E61U1Ri9fgNim7sRFA8XK+ZjAPvwxKrElpQBBYpCj9tf47f9NZA7nVqXPvP5vqCpGblYGsg+U4qKRDIh/U6YYByQ0vOPAthtTxImYMO04iCfC4XC65MYXl4pMrE9XwRQWi/jRfmLmtXItMWE4HE5PuOHFRX9OC+PwCEwdGQDvgADILBaJRyACBtVBdbLjn3WwG1Ok25gwBtSKgX1M/zKg2fyzZ1jFkjFWl0Nd3SimOJxbm9tWEal5/8TyST8Xs24sBnhfRdmBg8grPIH/LTgDg+cVXB30S9w3Qobgn3ui7PO/IvvL4/jq6Jco+ncYoqPHYuj3h5G18yAKThTgi0PV+NmUBIzrX4Kcv+7FkULKK9Th9gcTMTOU/J3/8MaVb77AoSNURsFRnGyUQvodMOy/I3DH/2lwXGlAMPst1OYSVF9o4K24F8H/AfQ3nMGRvHwUUJkX/MbiSu67yD49EPdEDYUbArRxOH2G1778Zx+Z0BXidpjgKLYJe0zcLERrFzMYbB/bmCIOY8KY43CQkl1bSAc6polq6DD2LIdzi9B34rkIcTscxzaxG0DKXkwRhzFhzHE4rklYGCy4NRcWDkeADwUOh+MWuLhwOBy3wMWFw+G4BS4uHA7HLXBx4XA4boGLC4fDcQtcXDgcjlvg4sLhcNwCFxcOh+MWuLhwOBy3wMWFw+G4BS4uHA7HLXBx4XA4bkEQl9sH9EdJdYOQweFwONcC0xKmKUI8l61FOiz9/Cy+v+LE39zgcDgcK5iwrPtVsFlcxDwOh8NxGXzOhcPhuAUuLhwOxw0A/w8c/FR3WhV4ewAAAABJRU5ErkJggg==;fontSize=9;fontFamily=Roboto Mono;fontSource=https%3A%2F%2Ffonts.googleapis.com%2Fcss%3Ffamily%3DRoboto%2BMono;" parent="1" vertex="1">
          <mxGeometry x="2763.38" y="-1870" width="279" height="96" as="geometry" />
        </mxCell>
        <mxCell id="M_lXGhKRNm76FgjSmlMK-4" value="&lt;a id=&quot;link-self2682-1726268328075-7413&quot; data-testid=&quot;&quot; class=&quot;awsui_link_4c84z_eu8v7_97 awsui_variant-primary_4c84z_eu8v7_201 awsui_font-size-body-m_4c84z_eu8v7_430&quot; aria-label=&quot;AmazonEC2RoleforAWSCodeDeploy - Opens in a new tab&quot; aria-labelledby=&quot;&quot; data-analytics-funnel-value=&quot;link2681-1726268328075-9386&quot; target=&quot;_blank&quot; rel=&quot;noopener noreferrer&quot; href=&quot;https://us-east-1.console.aws.amazon.com/iam/home?region=us-east-2#/policies/details/arn%3Aaws%3Aiam%3A%3Aaws%3Apolicy%2Fservice-role%2FAmazonEC2RoleforAWSCodeDeploy&quot; style=&quot;background-color: rgb(241, 250, 255); -webkit-font-smoothing: auto; border-collapse: separate; border-spacing: 0px; box-sizing: border-box; caption-side: top; cursor: auto; direction: inherit; display: inline; empty-cells: show; font-size: 9px; font-stretch: normal; font-variant-numeric: normal; font-variant-east-asian: normal; font-variant-alternates: normal; font-variant-position: normal; hyphens: none; line-height: var(--line-height-body-m-2zx78l, 22px); list-style: outside none disc; tab-size: 8; text-align: start; text-decoration-color: currentcolor; text-decoration-thickness: 1px; text-shadow: none; text-underline-offset: 0.25em; transition-duration: var(--motion-duration-refresh-only-medium-0rwzu1, 165ms); transition-property: color, text-decoration, -webkit-text-decoration; visibility: visible;&quot;&gt;AWSCodeDeployRole&lt;/a&gt;" style="sketch=0;outlineConnect=0;fontColor=default;gradientColor=none;strokeColor=#232F3E;fillColor=#ffffff;dashed=0;verticalLabelPosition=bottom;verticalAlign=top;align=center;html=1;fontSize=9;fontStyle=0;aspect=fixed;shape=mxgraph.aws4.resourceIcon;resIcon=mxgraph.aws4.policy;fontFamily=Roboto Mono;fontSource=https%3A%2F%2Ffonts.googleapis.com%2Fcss%3Ffamily%3DRoboto%2BMono;" parent="1" vertex="1">
          <mxGeometry x="2672.5" y="-1720" width="60" height="60" as="geometry" />
        </mxCell>
        <mxCell id="M_lXGhKRNm76FgjSmlMK-5" value="&lt;div style=&quot;font-size: 9px;&quot;&gt;Provides CodeDeploy service access to expand tags and interact with Auto Scaling on your behalf.&lt;br style=&quot;font-size: 9px;&quot;&gt;&lt;/div&gt;" style="text;html=1;align=center;verticalAlign=middle;whiteSpace=wrap;rounded=0;strokeColor=#d6b656;dashed=1;fillColor=#fff2cc;fontFamily=Roboto Mono;fontSource=https%3A%2F%2Ffonts.googleapis.com%2Fcss%3Ffamily%3DRoboto%2BMono;fontSize=9;" parent="1" vertex="1">
          <mxGeometry x="2589.52" y="-1630" width="225.96" height="50" as="geometry" />
        </mxCell>
        <mxCell id="M_lXGhKRNm76FgjSmlMK-6" value="Allows CodeDeploy to call AWS services such as Auto Scaling on your behalf." style="text;html=1;align=center;verticalAlign=middle;whiteSpace=wrap;rounded=0;fontSize=9;fontFamily=Roboto Mono;fontSource=https%3A%2F%2Ffonts.googleapis.com%2Fcss%3Ffamily%3DRoboto%2BMono;" parent="1" vertex="1">
          <mxGeometry x="2585" y="-1580" width="230.48" height="50" as="geometry" />
        </mxCell>
        <UserObject label="&lt;a href=&quot;https://us-east-1.console.aws.amazon.com/iam/home?region=us-east-2#/roles/details/CodeDeployEC2AccessBucket?section=permissions&quot; style=&quot;font-size: 9px;&quot;&gt;https://us-east-1.console.aws.amazon.com/iam/home?region=us-east-2#/roles/details/CodeDeployEC2ServiceRole?section=permissions&lt;/a&gt;" link="&lt;a href=&quot;https://us-east-1.console.aws.amazon.com/iam/home?region=us-east-2#/roles/details/CodeDeployEC2AccessBucket?section=permissions&quot;&gt;CodeDeployEC2AccessBucket | IAM | Global (amazon.com)&lt;/a&gt;" id="M_lXGhKRNm76FgjSmlMK-7">
          <mxCell style="text;whiteSpace=wrap;html=1;fontSize=9;fontFamily=Roboto Mono;fontSource=https%3A%2F%2Ffonts.googleapis.com%2Fcss%3Ffamily%3DRoboto%2BMono;" parent="1" vertex="1">
            <mxGeometry x="2560" y="-1530" width="350" height="40" as="geometry" />
          </mxCell>
        </UserObject>
        <mxCell id="M_lXGhKRNm76FgjSmlMK-8" value="&lt;div style=&quot;font-size: 9px;&quot;&gt;&lt;b style=&quot;font-size: 9px;&quot;&gt;IAM Role #1&amp;nbsp;&lt;/b&gt;&lt;/div&gt;&lt;div style=&quot;font-size: 9px;&quot;&gt;&lt;b style=&quot;font-size: 9px;&quot;&gt;(&lt;/b&gt;&lt;b style=&quot;background-color: initial;&quot;&gt;CodeDeploy)&lt;/b&gt;&lt;/div&gt;" style="text;html=1;align=center;verticalAlign=middle;whiteSpace=wrap;rounded=0;fontSize=9;fontFamily=Roboto Mono;fontSource=https%3A%2F%2Ffonts.googleapis.com%2Fcss%3Ffamily%3DRoboto%2BMono;" parent="1" vertex="1">
          <mxGeometry x="2570" y="-1876" width="90" height="36" as="geometry" />
        </mxCell>
        <mxCell id="M_lXGhKRNm76FgjSmlMK-9" value="add permissions&lt;div style=&quot;font-size: 9px;&quot;&gt;through policies&amp;nbsp;&lt;/div&gt;" style="edgeStyle=orthogonalEdgeStyle;rounded=0;orthogonalLoop=1;jettySize=auto;html=1;dashed=1;fontSize=9;fontFamily=Roboto Mono;fontSource=https%3A%2F%2Ffonts.googleapis.com%2Fcss%3Ffamily%3DRoboto%2BMono;" parent="1" source="M_lXGhKRNm76FgjSmlMK-10" target="M_lXGhKRNm76FgjSmlMK-12" edge="1">
          <mxGeometry relative="1" as="geometry" />
        </mxCell>
        <mxCell id="M_lXGhKRNm76FgjSmlMK-10" value="" style="sketch=0;outlineConnect=0;fontColor=#232F3E;gradientColor=none;fillColor=#DD344C;strokeColor=none;dashed=0;verticalLabelPosition=top;verticalAlign=bottom;align=center;html=1;fontSize=9;fontStyle=0;aspect=fixed;pointerEvents=1;shape=mxgraph.aws4.role;labelPosition=center;fontFamily=Roboto Mono;fontSource=https%3A%2F%2Ffonts.googleapis.com%2Fcss%3Ffamily%3DRoboto%2BMono;" parent="1" vertex="1">
          <mxGeometry x="2673.5" y="-1330" width="78" height="44" as="geometry" />
        </mxCell>
        <mxCell id="M_lXGhKRNm76FgjSmlMK-11" value="" style="shape=image;verticalLabelPosition=bottom;labelBackgroundColor=default;verticalAlign=top;aspect=fixed;imageAspect=0;image=data:image/png,iVBORw0KGgoAAAANSUhEUgAAARcAAABgCAYAAAA3gzYZAAAAAXNSR0IArs4c6QAAAARnQU1BAACxjwv8YQUAAAAJcEhZcwAADsMAAA7DAcdvqGQAAB+jSURBVHhe7Z0PXFRV2sd/S6Mw6wu+YMwWKugOBq8iCyptQ2lCvmC6ibutmi241pablZpZora+SKaFm/0x000qTdkMxE0s/0AmKq+MBcLEDi6oszqIkw0JC/PagMzC+5w7d2AYZvgzzqTo+X4+V+ece++55557zu8+z7n3PvyklQCHw+G4GEFcthbpsPTzs/j+ylUxm8PhcJzj9gH9se5XwWZx8U85hl1zIzBmiI+4msPhcJyjpLoBM7ap4MESzGLhwsLhcFwB0xKmKYK4cDgcjqvh4sLhcNwCFxcOh+MWuLhwOBy3wMWFw+G4BS4uHA7HLXBx4XA4boGLC4fDcQtcXDgcjlvg4sLhcNyC8G3RT144hPpXJ4lZ186pKj1e/UyFE5eu4nuTp5B3u6QJ99zRH8sfisDIQJmQx+Fwbk4GLj/kesslNes47t38DfZWe0Bv8kILfiIs7DfLY+vYNhwO5+bGpeLCROONUqMgJo5g69g2zghMU24you+JQuoRMYNoOsTyHkXGeTFDoAan9h1EXlmNmDZT87enaNtkHGliqQaUbluEBCov7K5wyp+KJ9fn057XF+WyYRgxeg1KxTSH01dxmbgwV+it0h/EVPewbdk+PacJebszUfNtDTI+zqGUGU9FNEZ9W4g8pZUsVO/B8qefwjPPZUIjZrH9T5Dg1IyKhoI8ter3Z2NmSglGPbMa6R/9BatWzsM9NRdQLW59vQie9CxmPBUDuZjmcPoqLhMXNsdia7E8fncAjswfKyzstzVsW7ZPj6nZg125wVi24VkMyd2DvCti/oBoxCnojq88KWaQjJwsxCkfH/hoClHSpjnlKCkAFJOi4YkLyM0qB37zMtYmTYaCBCpuagL+8NocRIpbd6YJDdXlUJZdQE2DRdpEmhpQU1kIZWUNbFe1cYW2cbiyHf9JL2DtM9HoGACDjl1Tg5qaBjSZxCwBln+Wzv1sj8rmcH5MXCYubPLWGiYmH8wcifvlvsLCftsKjO0+XVGzLxPKyDmYljAd04bkY8cui2r4QxETDBwsbHMlTpUUwj/pBST604D/RswsO4zcpmDcr/CnhBd8/Oi/8nJoejImr5TgtftDMDZ2LpbM+w0SxoVgheiaNSjXYPLIcMT8bhGW/O4+jB35mzYXrfq9SRgRtwYfvBiFEbRNdEohqeD/ICyItvnWvI1AUXueeZ/0dgtKk46Zd9Gxx92HhAfJhZsirmsoxGuxlH/vbCxZPBsxo0Mwc9sFYRcO50bAZeJieSpkYc7YO8Vf7djm2e7jmAvY+3EJIqc/SFISjGm/GYrSPQfa5keGKCbDv+kAjpSxFN3JC5pwzxiyQmJIwErIQiGqv85HjT9ZKcNYyh8z1ryESM3rJAxRmLMsHUe6UhnlR/igehbSTxWh8AQtp89j7X2UbyrEm79Px9BXy6Aupnxa3phYgtR38837MSoPonziThT+vQwnU6OBqMmY4VmCvbntbpwyJxNN8b/HDNsmM1FZ09dAM/UvOKmppPIrcWb/kxhCq5TrHsMHw9Nw0lKnDTEoTdkIq+koDue64tIJXbdRmYmMyjGYFs+sDkD+qwQMKU2nPCEJhD+IGf41KC2nAVtzEic00VD8glyg+2JQU1BId/omlCrL4T/zQYwUd4H8SWTRwMx5dTpwZA2eJCsg+veZ0HRwO0SGDsUQ0wF8+HY+NBZ3TEJL6UHsaorG/Xc3kcvC3JYmDAkhK+qbs1ZzN1TvqcHwZ26aD4mpJBqJf7QSRxKovKwmcssmk7tmQym5gg3B+MOzk+HDjscQ/i8R9lGMj0ZTHTtuDZoCR0GOk9B0mNjmcK4fLhMX9h6LNdtPWtv9ZmzzbPdxxCm6s1dLGqB8OxkrltGy9Sw8JWTNfH5W3GIUJk71hPJQIRq+IVcoJAbM+/H8RTTkZeQukQuRf8gT8TGjxO1FPP0xcuZL2H7iPE5uSUDTkWSktrlbVoS8gJyP5gC7HiNLZxii56VTmZRfX0+yRdbLI1OQ8JB5eeZv9fBXBAvWhSPkjz6JyNLt2MuEoIgECnOQSPXvhFA+VfM2c7KdetTTCuV6ctHE4ybMz0TDnXS+XR2Yw/kRcZm4sBfkrPnwax3+kHUKRzV1wsJ+szxrbPexC93Zd71fA/nsBUgYH4OJwjIdidOGovq97W3zLJHjJwMkLh+UFMJTMdY8uIeNhcKzECXp+cjDZNzveLYWPvEL8Ac5oG9oFHM64jPxBUGE1MUfY9r5NUhaXwLIhpKDFY1ln4muiWVJJX+sK+4kS0txFrtyyYXblwn/P86BwmKZWCOUX48GJmQdkGEoiadixf6Oxz3xMibaK4fDuQ64TFzYm7ce6PgnkJiYTNx8UlhshYVty/bpFnZnbxqDxGcSBNfBsiQumgN5Uyb2KsXtFLGYiExsercGcdFjxMwxUExuQsaG7WiaFGs1gJugOWX9hKUJ1Vmv4wONJxThQ8U8K660P6Xx9A+D3DI3MjIW8T6F2PQ2WUxt7hRzkTqpgQ3+mDZ7MjS7F+G1HUOR+DC5UvYQyq9Bxkay3MSqNpHSNAmWmg+UG9+Bstacz2gi96i7I3M4PxYuExf2Sv9zkT8VU93Dtu3JZwBHskgYFLMQbzvZOYysl0gSjixx8nTAZEwTvmCIhsKiLUSkIlr4f+I06zmNBpx6ayqiR4dgRNAwWkIQ8+JJjFmxE4sV4iZW1OQuQpicvdwWhbHycKwon4WNS+ggkjFI2ZOG4IOPUv4wjB1tLithu8Vdc4znVHKFzpfjFHsCJkwy20Esf0xJMmLuYmUPQ9i410E2EyJX/g1rgw9gTiSrV7h53UMfWb3Xw+FcX1z+bRF785a9IOfoLV1msTBhSZl5r5hzHWHvnvwgzGrAx9cHnl25FKYmNNSR1XCbD/z9Os+PNNWS1fBvKsnHH2ze1tU0NVD5JjvHtpyDJ61zx4E5HCdg3xbxDxc5HI7LcZu4cDicWxu3fBXN4XA4DC4uHA7HLXBx4XA4boGLC4fDcQtcXDgcjlvg4sLhcNxCHxKXRujUxVBX23z7o96NVzYVQIhppy/AptW7oRZWuIs6aIqLobksJmGC/pSdetlSp0FRSRUM7HeLAdqyYiiPK1FUXAndFXufYruPWtVeZB/v+DmGy7C+HsYqHMvajwrhS3I9jm1ai2xnL45RBzW1e1GHRQOrrx9goja2bKPW1MHUYpVPba0sLodWuABdY9SVo4j2dwu96qPlyF69Gcd6E7DxBqLviEudEru278aObGWHDgWTAQaD0fy7xUi/DTTc3cipPHyYtRsf5lriPUhgrMzDjn2lEGsBnN+LV5YuxxZlu+Boj2Qiu+giJC065L6xFlsOqHD2nAYVFQXY+ZmlrB+HOm0FNBfq2uvrSqyvx9WLqKjUQicOaCNdG4OzF6dejX1ZeSiqqKA2syw6s1jTjUe1PRUvpW3DnkI15avxZdYnKPweMBzfjJQN+1FEbX326xxsWvMOjnWjG4Zv9iG7QCumXEyv+mizsK1RFMm+Rp8Rl9qTaujHKBBxWYljVWJmT2gxwVBPnbq+0SWiU6FSQ3avArKyAhSJYyjov+SQnKtEpdgJDFotjJ4SaM5YvvTRo0JjgDw8EtLTBXQnCsH0F59AUmIiLU9gySM2oSAsmBrNdbcdkY7yBUw0iLs+U3nCUiTTMaVimmG6wtqIOrLVrpY8Q4eAgVS+0J40QLrr9AMVmLdyPmLvENNd0eU5WQhAtNBmlmU8gii39mg6dmqCMHvlavxp4VzKn4tFy+djgoykPzwRqSkL8Bjb/um5mDBQh6KiazAF2vpTx7Zq46pNm4npztta2rFzvzQxEaZ19trXss7QU2u32/7ffX9xlj7ygT6Z118ZEPW7aYj0VGNHaRWmBwaK67qgrhhbN+TgLA0jKd2njQjBjBcSSaDIsthUi1+tnYsIklf19uXYcXE8dcgp1H0NOLZhLUpHLsWiSb5iQSLGYhwrC8LdKXHApVSUljUi6pdewF0hCMZu/OM0EBFKAqTRITh6PPRktmsxCkFG+l8fgNCRtG09q4sW2tN0PqHeYsF2uJSP9e8eBoaEwPtKFUzhT+DpSTIYK3Zjw1/V8BpOw+qiBnXDH0Fy4ihUbluOXDqW5HQ59ANjsGR2I7Zs1OOB1CegEFSkCntWp8P48Go8oF2H9d/FIW0u+yqd3fXTsLMC8Jb2A3xJEJ5VoHb3BuxQSxE8lA5zrhZBM5KRFN6Aw2+8gy9bghDqTa5dcwRtGwPHH3OosHVpHgKeX4r4DgLTCM2nm/GhJgTzFk6B7J/2z8la/BxjgPobHfzuXoCIAWKWFVJv6zY2oZnGkZ/Myc9P9Pl4+91jMAwcTOd8ka6pDyY8t5jOTY/ctDdRxFriKt1xmHXS5Ad5UDP0ejqgidIIw2Mps0Ddg2DW6zp8Tu6iicSn2TcOi55n7dgIdUYadpwSrwWNThP9Yw4Oq8fhDeQi1fsggA6j0+rhPXExlsR1cS6O+j+1k8q2vyTHdXEdnaNviEuVCuqWMCQNIyuBLhI+UKIiIVC8UI5oRFH2blwMn481vzYLUcXHK7EjpxIRj0YgzDtdFIMqnL0gg0xCZnM93Rv7k1ldHYDI39sIC2EsU0EzfBSSpCQS4XLs+aoIhl+Oh7dHBCJDM5F7ju6IoXXk7gRA/rAcXoV50FKZQWTVaAaRtTKQChk4DY9PvYgt20jABtBxYhMQrwikMszHsKAvLYJ+eALSHh8n5jCqkLtbhcDZqzGbhdRroc6zTAmV0TwQG1rkWPJyIvyEq1qH6IB1+LuqEQoF1fc8tSGikMT2s7L4jV9lYOcZOZJovzBLb6jaiy2qICSl0mBg9SrehmQluX0yA4ouyTH9tbmIctrmNUG7TxSW56YgSEKi5+CczKJojYYEci0+F1Ohv16B34bRoKHxLPtZx/jM9tAd2A1lf7qJhIsZvUUWg0VtsXoaoXwvFYVl+jbhlE1cgHm/ZI3IhHwz6sa+ij+xyyec02ESI6qzeUvELnwCUWzTlkrsTNmGfaoYPOaXhz3qwZi+km4ITCjF/cywfVIQK6aMyvex6rgK+jhHotBV/w8R0h37i+vpE25RRWERTHI5/Jh55yuH3EONUlL3rqmFnnzuwcPbLZzQkXKYLmjpHhCIyJFSaP5B/tWlClTefg+m3mVAxalGoJKEYAiJBROCDtDA+kqDAKqHiZmsw+UIqFahSPTfQ0LkqD1TCcMlLap+KkfwQLJmhuvINaKxfE4H77tC2zpBwP3zseqVpXg8NgAXD23GK2/kmSdArZBFRkF2NgevbKABwSYnWWaLHnX1ErKIMrAjg5aPi+j+WYsGEjCGz53URm0dxZdERQ5NEQkgpSpOFJEgRghuhDV139eSnxTWLiwMfS0MEj2KPhaPc0IH/Iva/o4IRN1BA3zNO8g+rkGtE9a0/tA72KSWi8JCGd2cU0eCEL9wARaJy1Sru0tzc9cT6kbVNmw5CsQmkXV6Db3eUFWM3KwMZB8oxUUSNdO/xRVEv7bP6r0gZXHQLEkP68ZlSNCvbR3rJ9Qu31IPYO3uGwi5xQKz3c9QhSISyB1ZeVDp6OBWx+5MV/3fTMf+4npufHEhZS8tJ3P2TA7e3vAOLTmoJD9S9XUv/iyJBavBEBRJFtDpClSQmHiFhiFUHghtJZskJAH5RQQ6OSxkYpZWS1BHdwyhHulK1EnIfz9hvlTSkSEkNhqoNVVoYMJDeaFyEo8LZGWRhRQWaePGSXwhv/dhLHphGoL0KpReEvMt3EGm6svPY3a0Nyo+WYdXPrFM+vphdFwCpj/ElkQsemkhHnAwpyGNGodQHZVdz9pQhugJNnXoCt8wxAvHoCVpAf70bCyJI909n0/BkkcV8K7MRNrqTFT0crLRm9pGVq9BqdZaDHp6ThJIB3rDW1ykwsDwgc9/MgHvYgJWl4dNWXVQLCQXpnsDxzEVmVifroIpLBbxo9mfj/gRYRbO6+koJQv+gfgwunU4gRM3g2vhxheXCjLnvRSYl7ICf1ppXlY9SZ27orhtQhVXG62efJgEM5lN/snp1nhWXS62KZmJZRpIhgaZLYhh5BpdLUb2/xoQFERSMkKOoAsFyD0ThLvv7jwXwiaUdSMSkCzWgS3JCWStlJwwexlkqYQO0iA3T4PgYLPZ6R1EdoIqD8r/kyPUEhCKhNFkdZFNl3So9aCBYusCsEHLBGhcHB6LD4FRS3ccj0AEDNLhrIbKtgwyby/Hvi25a4pwPUo/KUBloAIKOz0yYDC1hoYsMEvgccaQAPjpNNBQvdqOw0ayICQS+MnHIX5uHEKNWsHU70SH69ERqXwanp7pD9UHm5HLnob39pw64QXF/RHoV7Yfe06JFh6DGlmYECVhWb+xHKFPLegkLMbq8u5fIbBCTwJmHB6BqSMD4B0QQK60uKLXGNFgeSR+RYnS016QB9N1YO1+ma6F5S0B9qRI/Ak9WcRGOSIfpJvYwAAMvr394PbPo5v+/yPgdPP8OFCDkF8pDZvf0ZwPZHMmm80TquFkdWTtxqY0LyxJDkWYbz72kA8rXTcXEQmJiNyYgZQUcULrpxFIetY88KkQMONFWWIZ+FTOwL3Y5zkNEZ18fTahrIN8UliHSUYpuRnyT/NQWkXWR6AMkeHeOJwvhXyEuMGwEMhblFDJSXjELHxfgLfJDaqVkqBQnQxGCUITFmKCjRumP0zuw3EDJCT/pqvNCHv4EeoUXohPiqHBshYvHaL9PZphvCrH7NWJ4l6dCb0vCtkblQh69IkOdW8j4hE8dnoDdqSuxD5vCZrF8pJi38S7a1Yid4AUkhZqO/kjWBOnN09oSvpRpYx0B38Yj9haGCHW18N+N5ZGJCIZ25C24U2Ynib3xsE50eWxge7eS5djp5iig2E2u86hs7DwtxnYunMdXrJELvWQIf75xfDLywebU9VvXIlj4ioMMk9gavMycPjOxQgb4iWusOJUJpKXZooJYuQspE0mV7UgB6tW59HA8YXfQCeHj0cj1DvW4vDlZjRfMcFPMRdJQp+JQ9Kkcrz71koU0bXAQBl8LfG/BJe0AHtS1yKXVvkN8m4bvGoH5xHaZf93P7dEPBf2+M5IzevNLtgNAXsMSYOTfrGnGUxA7MIeY9KtSzLA4gJYEPf3cOE5sUeWZL10KI89Hr7SzCoJb0ssdbadUCk69gBXtqdrzok9Pje29KQMNun6CaRP2j7J6gbh/E3knvXGunIAXV8js1ptC2Lt3uLV3uZWsL7czG5Mbft0fx7Xo//fMvFcJDSAf8yG7Z72uQOHwsLob96mU+ez7O/Kc/KQdC5PQh2cHce6k7PtWJ5LhYXhmnNiQtyjMq7WwiBTkDUgpnuKcP4uEBYGXd/O15Zg7e7gD2Owvtxhnx6cx/Xq/zwSHYfDcTk8Eh2Hw3EbXFw4HI5b4OLC4XDcAhcXDofjFm46cVFnrcWmo/be7Lo5MaoysGrZciQvXY4dZWLmjU6HOC/uwzVxa7qOQ+PW2Dh9nD4vLvpDmzuIiekHAww/iAk3o/7kGoIfuQTq+IfKIXsoBWnrXkWSsx/kuZuWcuy0DpBkE+fFXTgbt8b2unYVh8atsXH6OH1GXOzHFgF01VX2xYS97MS2t+0VlnxH8S3Yi03iCkvsDLtxO2hgX9TSett1PYpLIiLG+rA9p97UkX28Jh1g84Zpd3Vg5XeIB8JeYLM+npju4hzaroedbTrFhtFfRBW1ZduW9uK8dFPnTmUKWOptP/aJvbg1DvtFGw6uK8NSR6u2sz1G133m1qIPvOfSCO1nm7FF2QCptB9MRiO8J87HkjgJmavv43A1Xcjb2EtH/YRP8IOLl+PzhkBI69ndpBnGK42QPbgUi+73BS4VYNN7eTDcEQJfQyW0HrHmOBqX8pD2VhUCRl6EWt2I0EdTEKVOw85zfggeTN3tggxTU2ZZvY7Owg9mo5TKhid7qckXE/44H1E/7MemLUoYpFJITEYYB47HM8/FdfoKl8XS2HVRBp8WVkNWR9AxWbwUEoke1zER3p/1pg7mmCPaO0dBd6ocxtBZSItQIXm3DrKf0t2ZBoPJaIB0iBySy/rObWeFOiMV2eek8JVJYajWwTQiEclz2ACzExtmYi227FYJb/9KvalOg8Zj3tPe2GcV58V43kGd9XTOb6jgLSf3wzYuCp1Pd7Fl9Afa49awNnfYL9qwd10fhnHrm1ANoErU6c3XiyyusMdTMDvU+hihQiwWx33m1oK95wImLljyRWv91dYbczmb0/ri8+mtB+vE9HeHW19+bkPrp9+Z00e3LGtdkfNd2/Ys/WJGRetlMV2Wuab1qS2l9NvYeujdZa0v768Vt73Y+nHqmtaPTtPvqtzWFc+l0e9mcV1p61uU/vi8uQz7y3etWauXtb71tSWtbf0oZVnrn48axXRt66frrI/Xvgh13qVtS5/bv6H1qdW5rWd6VUe29KYO5m3ZcS83itt/vbX1qdSc1jIxfeloOqX3tf5D2Le19R+fpoltJ25vbznNrs+O1uP0+1IB7Z9Mv3+w2Uao+9bWo2155vbNqmK/u6izsN+m1s8ui/vVF7b+2bKfWOYhy7nYWc7ktNffcb+w3c+2Tc3pV79oENPG1oPvtPe59mP0pM/cOgvTlBvfLbKNceE7CqGDdNB28YV9P2/fttezpV6WXyy+hQSNmn3muCEZ+1HxgwF1/xJX0z1v2DDLtqGICjeicPOb2HpABZ2t22IPIS6JL4KGW1wUX4SF+JLb5qCi/dtdGb+Rcvhd1kHXqzraoQd1kAUFdvzkwMMLUjEtZe+Ve0ja2s7hpwkmPSry91L99uLw2VrB1WBegN3YMN3RbZ2l8LF8pE6WDdlDZpyILWO/X/QM9mmCGWovy8eEHXCiz9zk3Pji0gnxU3qnkCBQYYkbMgvzXljhYBLUC2GJKUidPwVBhnxs+Z/ugzrbw7l69rSOPcP5tnJEHbmjbyLn2wBEx92DILsD7droWZ2vPbaMa3FNn7mZuPHFRR6EgMuVKLU8ENKpoK4LAAuV0gbdObsnAIPvbITmjL7to0Hhw0FxbSeoo0oCQhA7cxaiBuqgcWQpWQ7tIUdQQB0qysSKtuhQqq5DwBDb2G9mmg3tsUe0X6lQGygHCzHVqzra0ss6OIcWmmqyLiaOg1wmQ5B/e+wbu7FhrGi2N/idrbNQVg9iyzhLT7qULT3tM7cIvbMNrwe+MZgxtQJb3loJJZntzUZg8NQnESvOwwXKA9Hw2WasKpZA/usUjDZn2yVixiz8/fX3kVLGJuuo/1yVYsKCxW1xSdspx47UbGhZ3BIWy8Q7Bs90sh5oYJEpfzh7JVZ9JoPimQWInzkFFenv4CUlme8mquidUzDPUlFbLh3G+pRP0Ey92EADbPqz44Xodz2voz18qWM7qoOrRh4z/3Owc3MqSvv3Qz+ZL7kq4rMSB7FhwmRB5NbmIzslFfv8FXh6ofW0axd17qrK34vBsruKLeMUttd1lpjfHT3pM7cWfeeraPYY8EqzndgmvUeIb9FCQ6LLT+edjS8i7tdFvBMh8vrPFiP5QT/hyYPUTvk9q6Mjuq/DtSLETelHlpW90ADCo26b2DDd4kSd2XHcElvGWZztMzcffeuraDG2yLUKC0OIb9HtoHU2voi4X486O23roPye1dERvamDcwhxUxzEHLEbG6ZbnKiz22LLOIuzfebmpA9O6PZ9Asc/jKm/8BFTHM7NCReX6wCbhAwLaH8UzeHcjHBx4XA4boGLC4fDcQtcXDgcjlvg4sLhcNwCF5drwDaWDIfDaadviIslBoe9OBmWdTYBOOzF/2iLQeLER2X2ynMYS4bD4fSBN3T14mveAwdDhovQ6n0w4bnF5r8uJ/wd4HzUstgbHs2QJ6RgdridmCLPKmC0GxMmAGBxUt7QIZ79WVB2POu08NtePJEY6P/SOZbMb2/V4B0cjg3sDd0+9kfRGqF8LxWFwxeTMDRiz5rN0EYtxqK49m9VjF+9j1WfeyEpJbH90/+qvXhlkx4PrHwCCha6oY4E61U1Ri9fgNim7sRFA8XK+ZjAPvwxKrElpQBBYpCj9tf47f9NZA7nVqXPvP5vqCpGblYGsg+U4qKRDIh/U6YYByQ0vOPAthtTxImYMO04iCfC4XC65MYXl4pMrE9XwRQWi/jRfmLmtXItMWE4HE5PuOHFRX9OC+PwCEwdGQDvgADILBaJRyACBtVBdbLjn3WwG1Ok25gwBtSKgX1M/zKg2fyzZ1jFkjFWl0Nd3SimOJxbm9tWEal5/8TyST8Xs24sBnhfRdmBg8grPIH/LTgDg+cVXB30S9w3Qobgn3ui7PO/IvvL4/jq6Jco+ncYoqPHYuj3h5G18yAKThTgi0PV+NmUBIzrX4Kcv+7FkULKK9Th9gcTMTOU/J3/8MaVb77AoSNURsFRnGyUQvodMOy/I3DH/2lwXGlAMPst1OYSVF9o4K24F8H/AfQ3nMGRvHwUUJkX/MbiSu67yD49EPdEDYUbArRxOH2G1778Zx+Z0BXidpjgKLYJe0zcLERrFzMYbB/bmCIOY8KY43CQkl1bSAc6polq6DD2LIdzi9B34rkIcTscxzaxG0DKXkwRhzFhzHE4rklYGCy4NRcWDkeADwUOh+MWuLhwOBy3wMWFw+G4BS4uHA7HLXBx4XA4boGLC4fDcQtcXDgcjlvg4sLhcNwCFxcOh+MWuLhwOBy3wMWFw+G4BS4uHA7HLXBx4XA4bkEQl9sH9EdJdYOQweFwONcC0xKmKUI8l61FOiz9/Cy+v+LE39zgcDgcK5iwrPtVsFlcxDwOh8NxGXzOhcPhuAUuLhwOxw0A/w8c/FR3WhV4ewAAAABJRU5ErkJggg==;fontSize=9;fontFamily=Roboto Mono;fontSource=https%3A%2F%2Ffonts.googleapis.com%2Fcss%3Ffamily%3DRoboto%2BMono;" parent="1" vertex="1">
          <mxGeometry x="2773.38" y="-1320" width="279" height="96" as="geometry" />
        </mxCell>
        <mxCell id="M_lXGhKRNm76FgjSmlMK-12" value="&lt;a style=&quot;background-color: rgb(241, 250, 255); -webkit-font-smoothing: auto; border-collapse: separate; border-spacing: 0px; box-sizing: border-box; caption-side: top; cursor: auto; direction: inherit; display: inline; empty-cells: show; font-size: 9px; font-stretch: normal; font-variant-numeric: normal; font-variant-east-asian: normal; font-variant-alternates: normal; font-variant-position: normal; hyphens: none; line-height: var(--line-height-body-m-2zx78l, 22px); list-style: outside none disc; tab-size: 8; text-align: start; text-decoration-color: currentcolor; text-decoration-thickness: 1px; text-shadow: none; text-underline-offset: 0.25em; transition-duration: var(--motion-duration-refresh-only-medium-0rwzu1, 165ms); transition-property: color, text-decoration, -webkit-text-decoration; visibility: visible;&quot; href=&quot;https://us-east-1.console.aws.amazon.com/iam/home?region=us-east-2#/policies/details/arn%3Aaws%3Aiam%3A%3Aaws%3Apolicy%2Fservice-role%2FAmazonEC2RoleforAWSCodeDeploy&quot; rel=&quot;noopener noreferrer&quot; target=&quot;_blank&quot; data-analytics-funnel-value=&quot;link2681-1726268328075-9386&quot; aria-labelledby=&quot;&quot; aria-label=&quot;AmazonEC2RoleforAWSCodeDeploy - Opens in a new tab&quot; class=&quot;awsui_link_4c84z_eu8v7_97 awsui_variant-primary_4c84z_eu8v7_201 awsui_font-size-body-m_4c84z_eu8v7_430&quot; data-testid=&quot;&quot; id=&quot;link-self2682-1726268328075-7413&quot;&gt;AmazonEC2RoleforAWSCodeDeploy&lt;/a&gt;" style="sketch=0;outlineConnect=0;fontColor=default;gradientColor=none;strokeColor=#232F3E;fillColor=#ffffff;dashed=0;verticalLabelPosition=bottom;verticalAlign=top;align=center;html=1;fontSize=9;fontStyle=0;aspect=fixed;shape=mxgraph.aws4.resourceIcon;resIcon=mxgraph.aws4.policy;fontFamily=Roboto Mono;fontSource=https%3A%2F%2Ffonts.googleapis.com%2Fcss%3Ffamily%3DRoboto%2BMono;" parent="1" vertex="1">
          <mxGeometry x="2682.5" y="-1170" width="60" height="60" as="geometry" />
        </mxCell>
        <mxCell id="M_lXGhKRNm76FgjSmlMK-13" value="&lt;div style=&quot;font-size: 9px;&quot;&gt;Provides EC2 access to S3 bucket to download revision. This role is needed by the CodeDeploy agent on EC2 instances.&lt;/div&gt;&lt;div style=&quot;font-size: 9px;&quot;&gt;&lt;br style=&quot;font-size: 9px;&quot;&gt;&lt;/div&gt;" style="text;html=1;align=center;verticalAlign=middle;whiteSpace=wrap;rounded=0;strokeColor=#d6b656;dashed=1;fillColor=#fff2cc;fontFamily=Roboto Mono;fontSource=https%3A%2F%2Ffonts.googleapis.com%2Fcss%3Ffamily%3DRoboto%2BMono;fontSize=9;" parent="1" vertex="1">
          <mxGeometry x="2599.52" y="-1080" width="225.96" height="50" as="geometry" />
        </mxCell>
        <mxCell id="M_lXGhKRNm76FgjSmlMK-14" value="You can customize this role to limit its scope as well only Codepipeline artifact stores can assume" style="text;html=1;align=left;verticalAlign=middle;whiteSpace=wrap;rounded=0;fontSize=9;fontFamily=Roboto Mono;fontSource=https%3A%2F%2Ffonts.googleapis.com%2Fcss%3Ffamily%3DRoboto%2BMono;" parent="1" vertex="1">
          <mxGeometry x="2773.38" y="-1220" width="230.48" height="40" as="geometry" />
        </mxCell>
        <mxCell id="M_lXGhKRNm76FgjSmlMK-15" value="&lt;div style=&quot;font-size: 9px;&quot;&gt;&lt;b style=&quot;font-size: 9px;&quot;&gt;IAM Role #2&lt;/b&gt;&lt;/div&gt;&lt;div style=&quot;font-size: 9px;&quot;&gt;&lt;b style=&quot;font-size: 9px;&quot;&gt;(&lt;/b&gt;&lt;b style=&quot;background-color: initial; font-size: 9px;&quot;&gt;EC2 instance)&lt;/b&gt;&lt;/div&gt;" style="text;html=1;align=center;verticalAlign=middle;whiteSpace=wrap;rounded=0;fontSize=9;fontFamily=Roboto Mono;fontSource=https%3A%2F%2Ffonts.googleapis.com%2Fcss%3Ffamily%3DRoboto%2BMono;" parent="1" vertex="1">
          <mxGeometry x="2580" y="-1326" width="85" height="40" as="geometry" />
        </mxCell>
        <UserObject label="&lt;a style=&quot;font-size: 9px;&quot; href=&quot;https://us-east-1.console.aws.amazon.com/iam/home?region=us-east-2#/roles/details/WebServerRole?section=permissions&quot;&gt;WebServerRole | IAM | Global (amazon.com)&lt;/a&gt;" link="&lt;a href=&quot;https://us-east-1.console.aws.amazon.com/iam/home?region=us-east-2#/roles/details/WebServerRole?section=permissions&quot;&gt;WebServerRole | IAM | Global (amazon.com)&lt;/a&gt;" id="M_lXGhKRNm76FgjSmlMK-16">
          <mxCell style="text;whiteSpace=wrap;html=1;fontFamily=Roboto Mono;fontSource=https%3A%2F%2Ffonts.googleapis.com%2Fcss%3Ffamily%3DRoboto%2BMono;fontSize=9;" parent="1" vertex="1">
            <mxGeometry x="2710" y="-990" width="230" height="40" as="geometry" />
          </mxCell>
        </UserObject>
        <UserObject label="&lt;div style=&quot;-webkit-font-smoothing: auto; color: rgb(22, 25, 31); font-size: 9px; font-weight: 400; line-height: var(--line-height-body-m-2zx78l, 22px); margin-inline-end: var(--space-xxs-9rrxti, 4px); display: inline; font-style: normal; font-variant-ligatures: normal; font-variant-caps: normal; letter-spacing: normal; orphans: 2; text-align: start; text-indent: 0px; text-transform: none; widows: 2; word-spacing: 0px; -webkit-text-stroke-width: 0px; white-space: nowrap; background-color: rgb(241, 250, 255); text-decoration-thickness: initial; text-decoration-style: initial; text-decoration-color: initial;&quot; class=&quot;awsui_root_18wu0_1ra3n_851 awsui_box_18wu0_1ra3n_108 awsui_m-right-xxs_18wu0_1ra3n_636 awsui_d-inline_18wu0_1ra3n_829 awsui_color-default_18wu0_1ra3n_108 awsui_font-size-default_18wu0_1ra3n_124 awsui_font-weight-default_18wu0_1ra3n_164&quot;&gt;&lt;img style=&quot;border-style: none; height: 15px; width: 15px; font-size: 9px;&quot; class=&quot;policyIcon&quot; role=&quot;presentation&quot; src=&quot;https://a.b.cdn.console.awsstatic.com/a/v1/S4PM6LABZ7X353GVBJBRTDANANZVNJZ4IBZQD55F2MCMZQDTH4ZA/722a87855e1163eb4acd71c1cac51166.png&quot;&gt;&lt;/div&gt;&lt;a style=&quot;background-color: rgb(241, 250, 255); -webkit-font-smoothing: auto; border-collapse: separate; border-spacing: 0px; box-sizing: border-box; caption-side: top; color: var(--color-text-link-default-hop3gv, #0073bb); cursor: auto; direction: inherit; display: inline; empty-cells: show; font-size: 9px; font-stretch: normal; font-style: normal; font-variant: normal; font-weight: 400; hyphens: none; letter-spacing: normal; line-height: var(--line-height-body-m-2zx78l, 22px); list-style: outside none disc; tab-size: 8; text-align: start; text-decoration-color: currentcolor; text-decoration-line: underline; text-decoration-thickness: 1px; text-indent: 0px; text-shadow: none; text-transform: none; text-underline-offset: 0.25em; transition-duration: var(--motion-duration-refresh-only-medium-0rwzu1, 165ms); transition-property: color, text-decoration, -webkit-text-decoration; visibility: visible; white-space: nowrap; word-spacing: 0px; orphans: 2; widows: 2; -webkit-text-stroke-width: 0px;&quot; href=&quot;https://us-east-1.console.aws.amazon.com/iam/home?region=us-east-2#/policies/details/arn%3Aaws%3Aiam%3A%3Aaws%3Apolicy%2FCloudWatchAgentServerPolicy&quot; rel=&quot;noopener noreferrer&quot; target=&quot;_blank&quot; data-analytics-funnel-value=&quot;link1386-1726779695550-9721&quot; aria-labelledby=&quot;&quot; aria-label=&quot;CloudWatchAgentServerPolicy - Opens in a new tab&quot; class=&quot;awsui_link_4c84z_eu8v7_97 awsui_variant-primary_4c84z_eu8v7_201 awsui_font-size-body-m_4c84z_eu8v7_430&quot; data-awsui-analytics=&quot;{&amp;quot;action&amp;quot;:&amp;quot;click&amp;quot;,&amp;quot;detail&amp;quot;:{&amp;quot;label&amp;quot;:{&amp;quot;root&amp;quot;:&amp;quot;self&amp;quot;},&amp;quot;external&amp;quot;:&amp;quot;false&amp;quot;,&amp;quot;href&amp;quot;:&amp;quot;#/policies/details/arn%3Aaws%3Aiam%3A%3Aaws%3Apolicy%2FCloudWatchAgentServerPolicy&amp;quot;},&amp;quot;component&amp;quot;:{&amp;quot;name&amp;quot;:&amp;quot;awsui.Link&amp;quot;,&amp;quot;label&amp;quot;:{&amp;quot;root&amp;quot;:&amp;quot;self&amp;quot;},&amp;quot;properties&amp;quot;:{&amp;quot;variant&amp;quot;:&amp;quot;secondary&amp;quot;}}}&quot; data-testid=&quot;&quot; id=&quot;link-self1387-1726779695550-8654&quot;&gt;CloudWatchAgentServerPolicy&lt;/a&gt;" link="&lt;div class=&quot;awsui_root_18wu0_1ra3n_851 awsui_box_18wu0_1ra3n_108 awsui_m-right-xxs_18wu0_1ra3n_636 awsui_d-inline_18wu0_1ra3n_829 awsui_color-default_18wu0_1ra3n_108 awsui_font-size-default_18wu0_1ra3n_124 awsui_font-weight-default_18wu0_1ra3n_164&quot; style=&quot;-webkit-font-smoothing: auto; color: rgb(22, 25, 31); font-family: &amp;quot;Amazon Ember&amp;quot;, &amp;quot;Helvetica Neue&amp;quot;, Roboto, Arial, sans-serif; font-size: 14px; font-weight: 400; line-height: var(--line-height-body-m-2zx78l, 22px); margin-inline-end: var(--space-xxs-9rrxti, 4px); display: inline; font-style: normal; font-variant-ligatures: normal; font-variant-caps: normal; letter-spacing: normal; orphans: 2; text-align: start; text-indent: 0px; text-transform: none; widows: 2; word-spacing: 0px; -webkit-text-stroke-width: 0px; white-space: nowrap; background-color: rgb(241, 250, 255); text-decoration-thickness: initial; text-decoration-style: initial; text-decoration-color: initial;&quot;&gt;&lt;img src=&quot;https://a.b.cdn.console.awsstatic.com/a/v1/S4PM6LABZ7X353GVBJBRTDANANZVNJZ4IBZQD55F2MCMZQDTH4ZA/722a87855e1163eb4acd71c1cac51166.png&quot; role=&quot;presentation&quot; class=&quot;policyIcon&quot; style=&quot;border-style: none; height: 15px; width: 15px;&quot;&gt;&lt;/div&gt;&lt;a id=&quot;link-self1387-1726779695550-8654&quot; data-testid=&quot;&quot; data-awsui-analytics=&quot;{&amp;quot;action&amp;quot;:&amp;quot;click&amp;quot;,&amp;quot;detail&amp;quot;:{&amp;quot;label&amp;quot;:{&amp;quot;root&amp;quot;:&amp;quot;self&amp;quot;},&amp;quot;external&amp;quot;:&amp;quot;false&amp;quot;,&amp;quot;href&amp;quot;:&amp;quot;#/policies/details/arn%3Aaws%3Aiam%3A%3Aaws%3Apolicy%2FCloudWatchAgentServerPolicy&amp;quot;},&amp;quot;component&amp;quot;:{&amp;quot;name&amp;quot;:&amp;quot;awsui.Link&amp;quot;,&amp;quot;label&amp;quot;:{&amp;quot;root&amp;quot;:&amp;quot;self&amp;quot;},&amp;quot;properties&amp;quot;:{&amp;quot;variant&amp;quot;:&amp;quot;secondary&amp;quot;}}}&quot; class=&quot;awsui_link_4c84z_eu8v7_97 awsui_variant-primary_4c84z_eu8v7_201 awsui_font-size-body-m_4c84z_eu8v7_430&quot; aria-label=&quot;CloudWatchAgentServerPolicy - Opens in a new tab&quot; aria-labelledby=&quot;&quot; data-analytics-funnel-value=&quot;link1386-1726779695550-9721&quot; target=&quot;_blank&quot; rel=&quot;noopener noreferrer&quot; href=&quot;https://us-east-1.console.aws.amazon.com/iam/home?region=us-east-2#/policies/details/arn%3Aaws%3Aiam%3A%3Aaws%3Apolicy%2FCloudWatchAgentServerPolicy&quot; style=&quot;background-color: rgb(241, 250, 255); -webkit-font-smoothing: auto; border-collapse: separate; border-spacing: 0px; box-sizing: border-box; caption-side: top; color: var(--color-text-link-default-hop3gv, #0073bb); cursor: auto; direction: inherit; display: inline; empty-cells: show; font-family: &amp;quot;Amazon Ember&amp;quot;, &amp;quot;Helvetica Neue&amp;quot;, Roboto, Arial, sans-serif; font-size: 14px; font-stretch: normal; font-style: normal; font-variant: normal; font-weight: 400; hyphens: none; letter-spacing: normal; line-height: var(--line-height-body-m-2zx78l, 22px); list-style: outside none disc; tab-size: 8; text-align: start; text-decoration-color: currentcolor; text-decoration-line: underline; text-decoration-thickness: 1px; text-indent: 0px; text-shadow: none; text-transform: none; text-underline-offset: 0.25em; transition-duration: var(--motion-duration-refresh-only-medium-0rwzu1, 165ms); transition-property: color, text-decoration, -webkit-text-decoration; visibility: visible; white-space: nowrap; word-spacing: 0px; orphans: 2; widows: 2; -webkit-text-stroke-width: 0px;&quot;&gt;CloudWatchAgentServerPolicy&lt;/a&gt;" id="M_lXGhKRNm76FgjSmlMK-17">
          <mxCell style="text;whiteSpace=wrap;html=1;fontSize=9;fontFamily=Roboto Mono;fontSource=https%3A%2F%2Ffonts.googleapis.com%2Fcss%3Ffamily%3DRoboto%2BMono;" parent="1" vertex="1">
            <mxGeometry x="2840" y="-1110" width="220" height="40" as="geometry" />
          </mxCell>
        </UserObject>
        <mxCell id="M_lXGhKRNm76FgjSmlMK-18" value="&lt;div style=&quot;&quot;&gt;&lt;div style=&quot;&quot;&gt;Permissions required to use AmazonCloudWatchAgent on servers&amp;nbsp;&lt;/div&gt;&lt;div style=&quot;&quot;&gt;CloudWatch uses a software package similar to CodeDeploy agent to send logs to CloudWatch&lt;/div&gt;&lt;div style=&quot;font-size: 9px;&quot;&gt;&lt;br&gt;&lt;/div&gt;&lt;/div&gt;" style="text;html=1;align=center;verticalAlign=middle;whiteSpace=wrap;rounded=0;strokeColor=#d6b656;dashed=1;fillColor=#fff2cc;fontFamily=Roboto Mono;fontSource=https%3A%2F%2Ffonts.googleapis.com%2Fcss%3Ffamily%3DRoboto%2BMono;fontSize=9;" parent="1" vertex="1">
          <mxGeometry x="2840" y="-1080" width="225.96" height="70" as="geometry" />
        </mxCell>
        <mxCell id="anpVo85duETfP2KHXqc7-1" value="add permissions&lt;div style=&quot;font-size: 9px;&quot;&gt;through policies&amp;nbsp;&lt;/div&gt;" style="edgeStyle=orthogonalEdgeStyle;rounded=0;orthogonalLoop=1;jettySize=auto;html=1;dashed=1;fontSize=9;fontFamily=Roboto Mono;fontSource=https%3A%2F%2Ffonts.googleapis.com%2Fcss%3Ffamily%3DRoboto%2BMono;" edge="1" parent="1" source="anpVo85duETfP2KHXqc7-2" target="anpVo85duETfP2KHXqc7-3">
          <mxGeometry relative="1" as="geometry" />
        </mxCell>
        <mxCell id="anpVo85duETfP2KHXqc7-2" value="" style="sketch=0;outlineConnect=0;fontColor=#232F3E;gradientColor=none;fillColor=#DD344C;strokeColor=none;dashed=0;verticalLabelPosition=top;verticalAlign=bottom;align=center;html=1;fontSize=9;fontStyle=0;aspect=fixed;pointerEvents=1;shape=mxgraph.aws4.role;labelPosition=center;fontFamily=Roboto Mono;fontSource=https%3A%2F%2Ffonts.googleapis.com%2Fcss%3Ffamily%3DRoboto%2BMono;" vertex="1" parent="1">
          <mxGeometry x="2678.5" y="-850" width="78" height="44" as="geometry" />
        </mxCell>
        <mxCell id="anpVo85duETfP2KHXqc7-3" value="" style="sketch=0;outlineConnect=0;fontColor=default;gradientColor=none;strokeColor=#232F3E;fillColor=#ffffff;dashed=0;verticalLabelPosition=bottom;verticalAlign=top;align=center;html=1;fontSize=9;fontStyle=0;aspect=fixed;shape=mxgraph.aws4.resourceIcon;resIcon=mxgraph.aws4.policy;fontFamily=Roboto Mono;fontSource=https%3A%2F%2Ffonts.googleapis.com%2Fcss%3Ffamily%3DRoboto%2BMono;" vertex="1" parent="1">
          <mxGeometry x="2687.5" y="-690" width="60" height="60" as="geometry" />
        </mxCell>
        <mxCell id="anpVo85duETfP2KHXqc7-4" value="&lt;div style=&quot;font-size: 9px;&quot;&gt;&lt;b style=&quot;font-size: 9px;&quot;&gt;IAM Role #3&lt;/b&gt;&lt;/div&gt;&lt;div style=&quot;font-size: 9px;&quot;&gt;&lt;b style=&quot;font-size: 9px;&quot;&gt;(&lt;/b&gt;&lt;b style=&quot;background-color: initial; font-size: 9px;&quot;&gt;EC2 instance)&lt;/b&gt;&lt;/div&gt;" style="text;html=1;align=center;verticalAlign=middle;whiteSpace=wrap;rounded=0;fontSize=9;fontFamily=Roboto Mono;fontSource=https%3A%2F%2Ffonts.googleapis.com%2Fcss%3Ffamily%3DRoboto%2BMono;" vertex="1" parent="1">
          <mxGeometry x="2585" y="-846" width="85" height="40" as="geometry" />
        </mxCell>
        <UserObject label="&lt;a style=&quot;background-color: rgb(255, 255, 255); -webkit-font-smoothing: auto; border-collapse: separate; border-spacing: 0px; box-sizing: border-box; caption-side: top; color: var(--color-text-link-default-hop3gv, #0073bb); cursor: auto; direction: inherit; display: inline; empty-cells: show; font-family: &amp;quot;Amazon Ember&amp;quot;, &amp;quot;Helvetica Neue&amp;quot;, Roboto, Arial, sans-serif; font-size: 9px; font-stretch: normal; font-style: normal; font-variant: normal; font-weight: 400; hyphens: none; letter-spacing: normal; line-height: var(--line-height-body-m-2zx78l, 22px); list-style: outside none disc; tab-size: 8; text-align: start; text-decoration-color: currentcolor; text-decoration-line: underline; text-decoration-thickness: 1px; text-indent: 0px; text-shadow: none; text-transform: none; text-underline-offset: 0.25em; transition-duration: var(--motion-duration-refresh-only-medium-0rwzu1, 165ms); transition-property: color, text-decoration, -webkit-text-decoration; visibility: visible; white-space: nowrap; word-spacing: 0px; orphans: 2; widows: 2; -webkit-text-stroke-width: 0px;&quot; href=&quot;https://us-east-1.console.aws.amazon.com/iam/home?region=us-east-1#/roles/details/CloudFormationServiceRoleForMyPipeline&quot; rel=&quot;noopener noreferrer&quot; target=&quot;_self&quot; data-analytics-funnel-value=&quot;link2394-1727471055261-5071&quot; aria-labelledby=&quot;&quot; class=&quot;awsui_link_4c84z_eu8v7_97 awsui_variant-primary_4c84z_eu8v7_201 awsui_font-size-body-m_4c84z_eu8v7_430&quot; data-awsui-analytics=&quot;{&amp;quot;action&amp;quot;:&amp;quot;click&amp;quot;,&amp;quot;detail&amp;quot;:{&amp;quot;label&amp;quot;:{&amp;quot;root&amp;quot;:&amp;quot;self&amp;quot;},&amp;quot;external&amp;quot;:&amp;quot;false&amp;quot;,&amp;quot;href&amp;quot;:&amp;quot;#/roles/details/CloudFormationServiceRoleForMyPipeline&amp;quot;},&amp;quot;component&amp;quot;:{&amp;quot;name&amp;quot;:&amp;quot;awsui.Link&amp;quot;,&amp;quot;label&amp;quot;:{&amp;quot;root&amp;quot;:&amp;quot;self&amp;quot;},&amp;quot;properties&amp;quot;:{&amp;quot;variant&amp;quot;:&amp;quot;secondary&amp;quot;}}}&quot; data-testid=&quot;&quot; id=&quot;link-self2395-1727471055261-9447&quot;&gt;CloudFormationServiceRoleForMyPipeline&lt;/a&gt;" link="&lt;a id=&quot;link-self2395-1727471055261-9447&quot; data-testid=&quot;&quot; data-awsui-analytics=&quot;{&amp;quot;action&amp;quot;:&amp;quot;click&amp;quot;,&amp;quot;detail&amp;quot;:{&amp;quot;label&amp;quot;:{&amp;quot;root&amp;quot;:&amp;quot;self&amp;quot;},&amp;quot;external&amp;quot;:&amp;quot;false&amp;quot;,&amp;quot;href&amp;quot;:&amp;quot;#/roles/details/CloudFormationServiceRoleForMyPipeline&amp;quot;},&amp;quot;component&amp;quot;:{&amp;quot;name&amp;quot;:&amp;quot;awsui.Link&amp;quot;,&amp;quot;label&amp;quot;:{&amp;quot;root&amp;quot;:&amp;quot;self&amp;quot;},&amp;quot;properties&amp;quot;:{&amp;quot;variant&amp;quot;:&amp;quot;secondary&amp;quot;}}}&quot; class=&quot;awsui_link_4c84z_eu8v7_97 awsui_variant-primary_4c84z_eu8v7_201 awsui_font-size-body-m_4c84z_eu8v7_430&quot; aria-labelledby=&quot;&quot; data-analytics-funnel-value=&quot;link2394-1727471055261-5071&quot; target=&quot;_self&quot; rel=&quot;noopener noreferrer&quot; href=&quot;https://us-east-1.console.aws.amazon.com/iam/home?region=us-east-1#/roles/details/CloudFormationServiceRoleForMyPipeline&quot; style=&quot;background-color: rgb(255, 255, 255); -webkit-font-smoothing: auto; border-collapse: separate; border-spacing: 0px; box-sizing: border-box; caption-side: top; color: var(--color-text-link-default-hop3gv, #0073bb); cursor: auto; direction: inherit; display: inline; empty-cells: show; font-family: &amp;quot;Amazon Ember&amp;quot;, &amp;quot;Helvetica Neue&amp;quot;, Roboto, Arial, sans-serif; font-size: 14px; font-stretch: normal; font-style: normal; font-variant: normal; font-weight: 400; hyphens: none; letter-spacing: normal; line-height: var(--line-height-body-m-2zx78l, 22px); list-style: outside none disc; tab-size: 8; text-align: start; text-decoration-color: currentcolor; text-decoration-line: underline; text-decoration-thickness: 1px; text-indent: 0px; text-shadow: none; text-transform: none; text-underline-offset: 0.25em; transition-duration: var(--motion-duration-refresh-only-medium-0rwzu1, 165ms); transition-property: color, text-decoration, -webkit-text-decoration; visibility: visible; white-space: nowrap; word-spacing: 0px; orphans: 2; widows: 2; -webkit-text-stroke-width: 0px;&quot;&gt;CloudFormationServiceRoleForMyPipeline&lt;/a&gt;" id="anpVo85duETfP2KHXqc7-6">
          <mxCell style="text;whiteSpace=wrap;html=1;fontFamily=Roboto Mono;fontSource=https%3A%2F%2Ffonts.googleapis.com%2Fcss%3Ffamily%3DRoboto%2BMono;fontSize=9;" vertex="1" parent="1">
            <mxGeometry x="2772.38" y="-843" width="270" height="30" as="geometry" />
          </mxCell>
        </UserObject>
        <UserObject label="&lt;div style=&quot;-webkit-font-smoothing: auto; color: rgb(22, 25, 31); font-family: &amp;quot;Amazon Ember&amp;quot;, &amp;quot;Helvetica Neue&amp;quot;, Roboto, Arial, sans-serif; font-size: 9px; font-weight: 400; line-height: var(--line-height-body-m-2zx78l, 22px); margin-inline-end: var(--space-xxs-9rrxti, 4px); display: inline; font-style: normal; font-variant-ligatures: normal; font-variant-caps: normal; letter-spacing: normal; orphans: 2; text-align: start; text-indent: 0px; text-transform: none; widows: 2; word-spacing: 0px; -webkit-text-stroke-width: 0px; white-space: nowrap; background-color: rgb(255, 255, 255); text-decoration-thickness: initial; text-decoration-style: initial; text-decoration-color: initial;&quot; class=&quot;awsui_root_18wu0_1ra3n_851 awsui_box_18wu0_1ra3n_108 awsui_m-right-xxs_18wu0_1ra3n_636 awsui_d-inline_18wu0_1ra3n_829 awsui_color-default_18wu0_1ra3n_108 awsui_font-size-default_18wu0_1ra3n_124 awsui_font-weight-default_18wu0_1ra3n_164&quot;&gt;&lt;img style=&quot;border-style: none; height: 15px; width: 15px; font-size: 9px;&quot; class=&quot;policyIcon&quot; role=&quot;presentation&quot; src=&quot;https://a.b.cdn.console.awsstatic.com/a/v1/S4PM6LABZ7X353GVBJBRTDANANZVNJZ4IBZQD55F2MCMZQDTH4ZA/722a87855e1163eb4acd71c1cac51166.png&quot;&gt;&lt;/div&gt;&lt;a style=&quot;background-color: rgb(255, 255, 255); -webkit-font-smoothing: auto; border-collapse: separate; border-spacing: 0px; box-sizing: border-box; caption-side: top; color: var(--color-text-link-default-hop3gv, #0073bb); cursor: auto; direction: inherit; display: inline; empty-cells: show; font-family: &amp;quot;Amazon Ember&amp;quot;, &amp;quot;Helvetica Neue&amp;quot;, Roboto, Arial, sans-serif; font-size: 9px; font-stretch: normal; font-style: normal; font-variant: normal; font-weight: 400; hyphens: none; letter-spacing: normal; line-height: var(--line-height-body-m-2zx78l, 22px); list-style: outside none disc; tab-size: 8; text-align: start; text-decoration-color: currentcolor; text-decoration-line: underline; text-decoration-thickness: 1px; text-indent: 0px; text-shadow: none; text-transform: none; text-underline-offset: 0.25em; transition-duration: var(--motion-duration-refresh-only-medium-0rwzu1, 165ms); transition-property: color, text-decoration, -webkit-text-decoration; visibility: visible; white-space: nowrap; word-spacing: 0px; orphans: 2; widows: 2; -webkit-text-stroke-width: 0px;&quot; href=&quot;https://us-east-1.console.aws.amazon.com/iam/home?region=us-east-1#/policies/details/arn%3Aaws%3Aiam%3A%3Aaws%3Apolicy%2FAmazonEC2FullAccess&quot; rel=&quot;noopener noreferrer&quot; target=&quot;_blank&quot; data-analytics-funnel-value=&quot;link2523-1727471150364-2207&quot; aria-labelledby=&quot;&quot; aria-label=&quot;AmazonEC2FullAccess - Opens in a new tab&quot; class=&quot;awsui_link_4c84z_eu8v7_97 awsui_variant-primary_4c84z_eu8v7_201 awsui_font-size-body-m_4c84z_eu8v7_430&quot; data-awsui-analytics=&quot;{&amp;quot;action&amp;quot;:&amp;quot;click&amp;quot;,&amp;quot;detail&amp;quot;:{&amp;quot;label&amp;quot;:{&amp;quot;root&amp;quot;:&amp;quot;self&amp;quot;},&amp;quot;external&amp;quot;:&amp;quot;false&amp;quot;,&amp;quot;href&amp;quot;:&amp;quot;#/policies/details/arn%3Aaws%3Aiam%3A%3Aaws%3Apolicy%2FAmazonEC2FullAccess&amp;quot;},&amp;quot;component&amp;quot;:{&amp;quot;name&amp;quot;:&amp;quot;awsui.Link&amp;quot;,&amp;quot;label&amp;quot;:{&amp;quot;root&amp;quot;:&amp;quot;self&amp;quot;},&amp;quot;properties&amp;quot;:{&amp;quot;variant&amp;quot;:&amp;quot;secondary&amp;quot;}}}&quot; data-testid=&quot;&quot; id=&quot;link-self2524-1727471150364-3431&quot;&gt;AmazonEC2FullAccess&lt;/a&gt;" link="&lt;div class=&quot;awsui_root_18wu0_1ra3n_851 awsui_box_18wu0_1ra3n_108 awsui_m-right-xxs_18wu0_1ra3n_636 awsui_d-inline_18wu0_1ra3n_829 awsui_color-default_18wu0_1ra3n_108 awsui_font-size-default_18wu0_1ra3n_124 awsui_font-weight-default_18wu0_1ra3n_164&quot; style=&quot;-webkit-font-smoothing: auto; color: rgb(22, 25, 31); font-family: &amp;quot;Amazon Ember&amp;quot;, &amp;quot;Helvetica Neue&amp;quot;, Roboto, Arial, sans-serif; font-size: 14px; font-weight: 400; line-height: var(--line-height-body-m-2zx78l, 22px); margin-inline-end: var(--space-xxs-9rrxti, 4px); display: inline; font-style: normal; font-variant-ligatures: normal; font-variant-caps: normal; letter-spacing: normal; orphans: 2; text-align: start; text-indent: 0px; text-transform: none; widows: 2; word-spacing: 0px; -webkit-text-stroke-width: 0px; white-space: nowrap; background-color: rgb(255, 255, 255); text-decoration-thickness: initial; text-decoration-style: initial; text-decoration-color: initial;&quot;&gt;&lt;img src=&quot;https://a.b.cdn.console.awsstatic.com/a/v1/S4PM6LABZ7X353GVBJBRTDANANZVNJZ4IBZQD55F2MCMZQDTH4ZA/722a87855e1163eb4acd71c1cac51166.png&quot; role=&quot;presentation&quot; class=&quot;policyIcon&quot; style=&quot;border-style: none; height: 15px; width: 15px;&quot;&gt;&lt;/div&gt;&lt;a id=&quot;link-self2524-1727471150364-3431&quot; data-testid=&quot;&quot; data-awsui-analytics=&quot;{&amp;quot;action&amp;quot;:&amp;quot;click&amp;quot;,&amp;quot;detail&amp;quot;:{&amp;quot;label&amp;quot;:{&amp;quot;root&amp;quot;:&amp;quot;self&amp;quot;},&amp;quot;external&amp;quot;:&amp;quot;false&amp;quot;,&amp;quot;href&amp;quot;:&amp;quot;#/policies/details/arn%3Aaws%3Aiam%3A%3Aaws%3Apolicy%2FAmazonEC2FullAccess&amp;quot;},&amp;quot;component&amp;quot;:{&amp;quot;name&amp;quot;:&amp;quot;awsui.Link&amp;quot;,&amp;quot;label&amp;quot;:{&amp;quot;root&amp;quot;:&amp;quot;self&amp;quot;},&amp;quot;properties&amp;quot;:{&amp;quot;variant&amp;quot;:&amp;quot;secondary&amp;quot;}}}&quot; class=&quot;awsui_link_4c84z_eu8v7_97 awsui_variant-primary_4c84z_eu8v7_201 awsui_font-size-body-m_4c84z_eu8v7_430&quot; aria-label=&quot;AmazonEC2FullAccess - Opens in a new tab&quot; aria-labelledby=&quot;&quot; data-analytics-funnel-value=&quot;link2523-1727471150364-2207&quot; target=&quot;_blank&quot; rel=&quot;noopener noreferrer&quot; href=&quot;https://us-east-1.console.aws.amazon.com/iam/home?region=us-east-1#/policies/details/arn%3Aaws%3Aiam%3A%3Aaws%3Apolicy%2FAmazonEC2FullAccess&quot; style=&quot;background-color: rgb(255, 255, 255); -webkit-font-smoothing: auto; border-collapse: separate; border-spacing: 0px; box-sizing: border-box; caption-side: top; color: var(--color-text-link-default-hop3gv, #0073bb); cursor: auto; direction: inherit; display: inline; empty-cells: show; font-family: &amp;quot;Amazon Ember&amp;quot;, &amp;quot;Helvetica Neue&amp;quot;, Roboto, Arial, sans-serif; font-size: 14px; font-stretch: normal; font-style: normal; font-variant: normal; font-weight: 400; hyphens: none; letter-spacing: normal; line-height: var(--line-height-body-m-2zx78l, 22px); list-style: outside none disc; tab-size: 8; text-align: start; text-decoration-color: currentcolor; text-decoration-line: underline; text-decoration-thickness: 1px; text-indent: 0px; text-shadow: none; text-transform: none; text-underline-offset: 0.25em; transition-duration: var(--motion-duration-refresh-only-medium-0rwzu1, 165ms); transition-property: color, text-decoration, -webkit-text-decoration; visibility: visible; white-space: nowrap; word-spacing: 0px; orphans: 2; widows: 2; -webkit-text-stroke-width: 0px;&quot;&gt;AmazonEC2FullAccess&lt;/a&gt;" id="anpVo85duETfP2KHXqc7-7">
          <mxCell style="text;whiteSpace=wrap;html=1;fontFamily=Roboto Mono;fontSource=https%3A%2F%2Ffonts.googleapis.com%2Fcss%3Ffamily%3DRoboto%2BMono;fontSize=9;" vertex="1" parent="1">
            <mxGeometry x="2772.38" y="-680" width="180" height="30" as="geometry" />
          </mxCell>
        </UserObject>
        <UserObject label="&lt;div style=&quot;-webkit-font-smoothing: auto; color: rgb(22, 25, 31); font-family: &amp;quot;Amazon Ember&amp;quot;, &amp;quot;Helvetica Neue&amp;quot;, Roboto, Arial, sans-serif; font-size: 9px; font-weight: 400; line-height: var(--line-height-body-m-2zx78l, 22px); margin-inline-end: var(--space-xxs-9rrxti, 4px); display: inline; font-style: normal; font-variant-ligatures: normal; font-variant-caps: normal; letter-spacing: normal; orphans: 2; text-align: start; text-indent: 0px; text-transform: none; widows: 2; word-spacing: 0px; -webkit-text-stroke-width: 0px; white-space: nowrap; background-color: rgb(255, 255, 255); text-decoration-thickness: initial; text-decoration-style: initial; text-decoration-color: initial;&quot; class=&quot;awsui_root_18wu0_1ra3n_851 awsui_box_18wu0_1ra3n_108 awsui_m-right-xxs_18wu0_1ra3n_636 awsui_d-inline_18wu0_1ra3n_829 awsui_color-default_18wu0_1ra3n_108 awsui_font-size-default_18wu0_1ra3n_124 awsui_font-weight-default_18wu0_1ra3n_164&quot;&gt;&lt;img style=&quot;border-style: none; height: 15px; width: 15px; font-size: 9px;&quot; class=&quot;policyIcon&quot; role=&quot;presentation&quot; src=&quot;https://a.b.cdn.console.awsstatic.com/a/v1/S4PM6LABZ7X353GVBJBRTDANANZVNJZ4IBZQD55F2MCMZQDTH4ZA/722a87855e1163eb4acd71c1cac51166.png&quot;&gt;&lt;/div&gt;&lt;a style=&quot;background-color: rgb(255, 255, 255); -webkit-font-smoothing: auto; border-collapse: separate; border-spacing: 0px; box-sizing: border-box; caption-side: top; color: var(--color-text-link-default-hop3gv, #0073bb); cursor: auto; direction: inherit; display: inline; empty-cells: show; font-family: &amp;quot;Amazon Ember&amp;quot;, &amp;quot;Helvetica Neue&amp;quot;, Roboto, Arial, sans-serif; font-size: 9px; font-stretch: normal; font-style: normal; font-variant: normal; font-weight: 400; hyphens: none; letter-spacing: normal; line-height: var(--line-height-body-m-2zx78l, 22px); list-style: outside none disc; tab-size: 8; text-align: start; text-decoration-color: currentcolor; text-decoration-line: underline; text-decoration-thickness: 1px; text-indent: 0px; text-shadow: none; text-transform: none; text-underline-offset: 0.25em; transition-duration: var(--motion-duration-refresh-only-medium-0rwzu1, 165ms); transition-property: color, text-decoration, -webkit-text-decoration; visibility: visible; white-space: nowrap; word-spacing: 0px; orphans: 2; widows: 2; -webkit-text-stroke-width: 0px;&quot; href=&quot;https://us-east-1.console.aws.amazon.com/iam/home?region=us-east-1#/policies/details/arn%3Aaws%3Aiam%3A%3Aaws%3Apolicy%2FIAMFullAccess&quot; rel=&quot;noopener noreferrer&quot; target=&quot;_blank&quot; data-analytics-funnel-value=&quot;link2532-1727471150365-5839&quot; aria-labelledby=&quot;&quot; aria-label=&quot;IAMFullAccess - Opens in a new tab&quot; class=&quot;awsui_link_4c84z_eu8v7_97 awsui_variant-primary_4c84z_eu8v7_201 awsui_font-size-body-m_4c84z_eu8v7_430&quot; data-awsui-analytics=&quot;{&amp;quot;action&amp;quot;:&amp;quot;click&amp;quot;,&amp;quot;detail&amp;quot;:{&amp;quot;label&amp;quot;:{&amp;quot;root&amp;quot;:&amp;quot;self&amp;quot;},&amp;quot;external&amp;quot;:&amp;quot;false&amp;quot;,&amp;quot;href&amp;quot;:&amp;quot;#/policies/details/arn%3Aaws%3Aiam%3A%3Aaws%3Apolicy%2FIAMFullAccess&amp;quot;},&amp;quot;component&amp;quot;:{&amp;quot;name&amp;quot;:&amp;quot;awsui.Link&amp;quot;,&amp;quot;label&amp;quot;:{&amp;quot;root&amp;quot;:&amp;quot;self&amp;quot;},&amp;quot;properties&amp;quot;:{&amp;quot;variant&amp;quot;:&amp;quot;secondary&amp;quot;}}}&quot; data-testid=&quot;&quot; id=&quot;link-self2533-1727471150365-6126&quot;&gt;IAMFullAccess&lt;/a&gt;" link="&lt;div class=&quot;awsui_root_18wu0_1ra3n_851 awsui_box_18wu0_1ra3n_108 awsui_m-right-xxs_18wu0_1ra3n_636 awsui_d-inline_18wu0_1ra3n_829 awsui_color-default_18wu0_1ra3n_108 awsui_font-size-default_18wu0_1ra3n_124 awsui_font-weight-default_18wu0_1ra3n_164&quot; style=&quot;-webkit-font-smoothing: auto; color: rgb(22, 25, 31); font-family: &amp;quot;Amazon Ember&amp;quot;, &amp;quot;Helvetica Neue&amp;quot;, Roboto, Arial, sans-serif; font-size: 14px; font-weight: 400; line-height: var(--line-height-body-m-2zx78l, 22px); margin-inline-end: var(--space-xxs-9rrxti, 4px); display: inline; font-style: normal; font-variant-ligatures: normal; font-variant-caps: normal; letter-spacing: normal; orphans: 2; text-align: start; text-indent: 0px; text-transform: none; widows: 2; word-spacing: 0px; -webkit-text-stroke-width: 0px; white-space: nowrap; background-color: rgb(255, 255, 255); text-decoration-thickness: initial; text-decoration-style: initial; text-decoration-color: initial;&quot;&gt;&lt;img src=&quot;https://a.b.cdn.console.awsstatic.com/a/v1/S4PM6LABZ7X353GVBJBRTDANANZVNJZ4IBZQD55F2MCMZQDTH4ZA/722a87855e1163eb4acd71c1cac51166.png&quot; role=&quot;presentation&quot; class=&quot;policyIcon&quot; style=&quot;border-style: none; height: 15px; width: 15px;&quot;&gt;&lt;/div&gt;&lt;a id=&quot;link-self2533-1727471150365-6126&quot; data-testid=&quot;&quot; data-awsui-analytics=&quot;{&amp;quot;action&amp;quot;:&amp;quot;click&amp;quot;,&amp;quot;detail&amp;quot;:{&amp;quot;label&amp;quot;:{&amp;quot;root&amp;quot;:&amp;quot;self&amp;quot;},&amp;quot;external&amp;quot;:&amp;quot;false&amp;quot;,&amp;quot;href&amp;quot;:&amp;quot;#/policies/details/arn%3Aaws%3Aiam%3A%3Aaws%3Apolicy%2FIAMFullAccess&amp;quot;},&amp;quot;component&amp;quot;:{&amp;quot;name&amp;quot;:&amp;quot;awsui.Link&amp;quot;,&amp;quot;label&amp;quot;:{&amp;quot;root&amp;quot;:&amp;quot;self&amp;quot;},&amp;quot;properties&amp;quot;:{&amp;quot;variant&amp;quot;:&amp;quot;secondary&amp;quot;}}}&quot; class=&quot;awsui_link_4c84z_eu8v7_97 awsui_variant-primary_4c84z_eu8v7_201 awsui_font-size-body-m_4c84z_eu8v7_430&quot; aria-label=&quot;IAMFullAccess - Opens in a new tab&quot; aria-labelledby=&quot;&quot; data-analytics-funnel-value=&quot;link2532-1727471150365-5839&quot; target=&quot;_blank&quot; rel=&quot;noopener noreferrer&quot; href=&quot;https://us-east-1.console.aws.amazon.com/iam/home?region=us-east-1#/policies/details/arn%3Aaws%3Aiam%3A%3Aaws%3Apolicy%2FIAMFullAccess&quot; style=&quot;background-color: rgb(255, 255, 255); -webkit-font-smoothing: auto; border-collapse: separate; border-spacing: 0px; box-sizing: border-box; caption-side: top; color: var(--color-text-link-default-hop3gv, #0073bb); cursor: auto; direction: inherit; display: inline; empty-cells: show; font-family: &amp;quot;Amazon Ember&amp;quot;, &amp;quot;Helvetica Neue&amp;quot;, Roboto, Arial, sans-serif; font-size: 14px; font-stretch: normal; font-style: normal; font-variant: normal; font-weight: 400; hyphens: none; letter-spacing: normal; line-height: var(--line-height-body-m-2zx78l, 22px); list-style: outside none disc; tab-size: 8; text-align: start; text-decoration-color: currentcolor; text-decoration-line: underline; text-decoration-thickness: 1px; text-indent: 0px; text-shadow: none; text-transform: none; text-underline-offset: 0.25em; transition-duration: var(--motion-duration-refresh-only-medium-0rwzu1, 165ms); transition-property: color, text-decoration, -webkit-text-decoration; visibility: visible; white-space: nowrap; word-spacing: 0px; orphans: 2; widows: 2; -webkit-text-stroke-width: 0px;&quot;&gt;IAMFullAccess&lt;/a&gt;" id="anpVo85duETfP2KHXqc7-8">
          <mxCell style="text;whiteSpace=wrap;html=1;fontFamily=Roboto Mono;fontSource=https%3A%2F%2Ffonts.googleapis.com%2Fcss%3Ffamily%3DRoboto%2BMono;fontSize=9;" vertex="1" parent="1">
            <mxGeometry x="2772.38" y="-650" width="120" height="30" as="geometry" />
          </mxCell>
        </UserObject>
        <mxCell id="anpVo85duETfP2KHXqc7-9" value="Provides full access to Amazon EC2 via the AWS Management Console." style="text;whiteSpace=wrap;fontFamily=Roboto Mono;fontSource=https%3A%2F%2Ffonts.googleapis.com%2Fcss%3Ffamily%3DRoboto%2BMono;fontSize=9;" vertex="1" parent="1">
          <mxGeometry x="2892.38" y="-675" width="390" height="20" as="geometry" />
        </mxCell>
        <mxCell id="anpVo85duETfP2KHXqc7-10" value="Provides full access to IAM via the AWS Management Console." style="text;whiteSpace=wrap;fontFamily=Roboto Mono;fontSource=https%3A%2F%2Ffonts.googleapis.com%2Fcss%3Ffamily%3DRoboto%2BMono;fontSize=9;" vertex="1" parent="1">
          <mxGeometry x="2870" y="-640" width="430" height="20" as="geometry" />
        </mxCell>
        <mxCell id="anpVo85duETfP2KHXqc7-13" style="edgeStyle=orthogonalEdgeStyle;rounded=0;orthogonalLoop=1;jettySize=auto;html=1;entryX=0;entryY=0.5;entryDx=0;entryDy=0;" edge="1" parent="1" source="anpVo85duETfP2KHXqc7-11" target="anpVo85duETfP2KHXqc7-12">
          <mxGeometry relative="1" as="geometry" />
        </mxCell>
        <mxCell id="anpVo85duETfP2KHXqc7-11" value="Allows CloudFormation to create and manage AWS stacks and resources on your behalf." style="text;whiteSpace=wrap;" vertex="1" parent="1">
          <mxGeometry x="2772.38" y="-813" width="507.62" height="23" as="geometry" />
        </mxCell>
        <UserObject label="{&#xa;    &quot;Version&quot;: &quot;2012-10-17&quot;,&#xa;    &quot;Statement&quot;: [&#xa;        {&#xa;            &quot;Sid&quot;: &quot;&quot;,&#xa;            &quot;Effect&quot;: &quot;Allow&quot;,&#xa;            &quot;Principal&quot;: {&#xa;                &quot;Service&quot;: &quot;cloudformation.amazonaws.com&quot;&#xa;            },&#xa;            &quot;Action&quot;: &quot;sts:AssumeRole&quot;&#xa;        }&#xa;    ]&#xa;}" link="{&#xa;    &quot;Version&quot;: &quot;2012-10-17&quot;,&#xa;    &quot;Statement&quot;: [&#xa;        {&#xa;            &quot;Sid&quot;: &quot;&quot;,&#xa;            &quot;Effect&quot;: &quot;Allow&quot;,&#xa;            &quot;Principal&quot;: {&#xa;                &quot;Service&quot;: &quot;cloudformation.amazonaws.com&quot;&#xa;            },&#xa;            &quot;Action&quot;: &quot;sts:AssumeRole&quot;&#xa;        }&#xa;    ]&#xa;}" id="anpVo85duETfP2KHXqc7-12">
          <mxCell style="text;whiteSpace=wrap;strokeColor=default;" vertex="1" parent="1">
            <mxGeometry x="3460" y="-906.5" width="320" height="210" as="geometry" />
          </mxCell>
        </UserObject>
      </root>
    </mxGraphModel>
  </diagram>
</mxfile>
